<?xml version="1.0" encoding="UTF-8" standalone="no"?>
<!DOCTYPE svg PUBLIC "-//W3C//DTD SVG 1.1//EN"
 "http://www.w3.org/Graphics/SVG/1.1/DTD/svg11.dtd">
<!-- Generated by graphviz version 2.43.0 (0)
 -->
<!-- Title: DocuSnap_Backend_Core_Modules Pages: 1 -->
<svg width="2069pt" height="1080pt"
 viewBox="36.00 36.00 2033.00 1043.88" xmlns="http://www.w3.org/2000/svg" xmlns:xlink="http://www.w3.org/1999/xlink">
<g id="graph0" class="graph" transform="scale(1 1) rotate(0) translate(40 1039.88)">
<title>DocuSnap_Backend_Core_Modules</title>
<polygon fill="white" stroke="transparent" points="-4,4 -4,-1003.88 1993,-1003.88 1993,4 -4,4"/>
<text text-anchor="middle" x="994.5" y="-983.08" font-family="Noto Sans SC" font-size="16.00">DocuSnap&#45;Backend 核心模块关系图</text>
<g id="clust1" class="cluster">
<title>cluster_task_processing</title>
<path fill="#e6f2ff" stroke="black" d="M893,-533C893,-533 1055,-533 1055,-533 1061,-533 1067,-539 1067,-545 1067,-545 1067,-953.88 1067,-953.88 1067,-959.88 1061,-965.88 1055,-965.88 1055,-965.88 893,-965.88 893,-965.88 887,-965.88 881,-959.88 881,-953.88 881,-953.88 881,-545 881,-545 881,-539 887,-533 893,-533"/>
<text text-anchor="middle" x="974" y="-949.08" font-family="Noto Sans SC" font-size="16.00">任务处理模块</text>
</g>
<g id="clust2" class="cluster">
<title>cluster_ocr_processing</title>
<path fill="#ffe6cc" stroke="black" d="M20,-8C20,-8 320,-8 320,-8 326,-8 332,-14 332,-20 332,-20 332,-472 332,-472 332,-478 326,-484 320,-484 320,-484 20,-484 20,-484 14,-484 8,-478 8,-472 8,-472 8,-20 8,-20 8,-14 14,-8 20,-8"/>
<text text-anchor="middle" x="170" y="-467.2" font-family="Noto Sans SC" font-size="16.00">OCR 处理模块</text>
</g>
<g id="clust3" class="cluster">
<title>cluster_llm_processing</title>
<path fill="#f2e6ff" stroke="black" d="M344,-207C344,-207 1008,-207 1008,-207 1014,-207 1020,-213 1020,-219 1020,-219 1020,-472 1020,-472 1020,-478 1014,-484 1008,-484 1008,-484 344,-484 344,-484 338,-484 332,-478 332,-472 332,-472 332,-219 332,-219 332,-213 338,-207 344,-207"/>
<text text-anchor="middle" x="676" y="-467.2" font-family="Noto Sans SC" font-size="16.00">LLM 处理模块</text>
</g>
<g id="clust4" class="cluster">
<title>cluster_security</title>
<path fill="#e6ffe6" stroke="black" d="M1148,-45C1148,-45 1474,-45 1474,-45 1480,-45 1486,-51 1486,-57 1486,-57 1486,-319 1486,-319 1486,-325 1480,-331 1474,-331 1474,-331 1148,-331 1148,-331 1142,-331 1136,-325 1136,-319 1136,-319 1136,-57 1136,-57 1136,-51 1142,-45 1148,-45"/>
<text text-anchor="middle" x="1311" y="-314.2" font-family="Noto Sans SC" font-size="16.00">安全加密模块</text>
</g>
<g id="clust5" class="cluster">
<title>cluster_cache</title>
<path fill="#ffecf2" stroke="black" d="M1117,-360C1117,-360 1745,-360 1745,-360 1751,-360 1757,-366 1757,-372 1757,-372 1757,-645 1757,-645 1757,-651 1751,-657 1745,-657 1745,-657 1117,-657 1117,-657 1111,-657 1105,-651 1105,-645 1105,-645 1105,-372 1105,-372 1105,-366 1111,-360 1117,-360"/>
<text text-anchor="middle" x="1431" y="-640.2" font-family="Noto Sans SC" font-size="16.00">缓存和数据持久化模块</text>
</g>
<g id="clust6" class="cluster">
<title>cluster_legend</title>
<path fill="white" stroke="black" d="M1773,-515C1773,-515 1969,-515 1969,-515 1975,-515 1981,-521 1981,-527 1981,-527 1981,-928.5 1981,-928.5 1981,-934.5 1975,-940.5 1969,-940.5 1969,-940.5 1773,-940.5 1773,-940.5 1767,-940.5 1761,-934.5 1761,-928.5 1761,-928.5 1761,-527 1761,-527 1761,-521 1767,-515 1773,-515"/>
<text text-anchor="middle" x="1871" y="-923.7" font-family="Noto Sans SC" font-size="16.00">图例</text>
</g>
<!-- TaskQueue -->
<g id="node1" class="node">
<title>TaskQueue</title>
<path fill="#b3e0ff" stroke="#333333" d="M1036,-918.52C1036,-923.61 1008.21,-927.75 974,-927.75 939.79,-927.75 912,-923.61 912,-918.52 912,-918.52 912,-835.48 912,-835.48 912,-830.39 939.79,-826.25 974,-826.25 1008.21,-826.25 1036,-830.39 1036,-835.48 1036,-835.48 1036,-918.52 1036,-918.52"/>
<path fill="none" stroke="#333333" d="M1036,-918.52C1036,-913.43 1008.21,-909.3 974,-909.3 939.79,-909.3 912,-913.43 912,-918.52"/>
<text text-anchor="middle" x="974" y="-880.8" font-family="Noto Sans SC" font-size="14.00">task_queue</text>
<text text-anchor="middle" x="974" y="-865.8" font-family="Noto Sans SC" font-size="14.00">任务队列</text>
</g>
<!-- WorkerProcess -->
<g id="node2" class="node">
<title>WorkerProcess</title>
<path fill="#b3e0ff" stroke="#333333" d="M1043,-773.56C1043,-773.56 905,-773.56 905,-773.56 899,-773.56 893,-767.56 893,-761.56 893,-761.56 893,-711.56 893,-711.56 893,-705.56 899,-699.56 905,-699.56 905,-699.56 1043,-699.56 1043,-699.56 1049,-699.56 1055,-705.56 1055,-711.56 1055,-711.56 1055,-761.56 1055,-761.56 1055,-767.56 1049,-773.56 1043,-773.56"/>
<text text-anchor="middle" x="974" y="-740.36" font-family="Noto Sans SC" font-size="14.00">worker_process()</text>
<text text-anchor="middle" x="974" y="-725.36" font-family="Noto Sans SC" font-size="14.00">工作线程函数</text>
</g>
<!-- TaskQueue&#45;&gt;WorkerProcess -->
<g id="edge1" class="edge">
<title>TaskQueue&#45;&gt;WorkerProcess</title>
<path fill="none" stroke="#666666" d="M974,-826.02C974,-812.2 974,-797.26 974,-783.67"/>
<polygon fill="#666666" stroke="#666666" points="977.5,-783.57 974,-773.57 970.5,-783.57 977.5,-783.57"/>
<text text-anchor="middle" x="998.5" y="-798.52" font-family="Noto Sans SC" font-size="12.00">获取任务</text>
</g>
<!-- ProcessTask -->
<g id="node3" class="node">
<title>ProcessTask</title>
<path fill="#b3e0ff" stroke="#333333" d="M1029,-619C1029,-619 909,-619 909,-619 903,-619 897,-613 897,-607 897,-607 897,-557 897,-557 897,-551 903,-545 909,-545 909,-545 1029,-545 1029,-545 1035,-545 1041,-551 1041,-557 1041,-557 1041,-607 1041,-607 1041,-613 1035,-619 1029,-619"/>
<text text-anchor="middle" x="969" y="-585.8" font-family="Noto Sans SC" font-size="14.00">process_task()</text>
<text text-anchor="middle" x="969" y="-570.8" font-family="Noto Sans SC" font-size="14.00">任务处理函数</text>
</g>
<!-- WorkerProcess&#45;&gt;ProcessTask -->
<g id="edge2" class="edge">
<title>WorkerProcess&#45;&gt;ProcessTask</title>
<path fill="none" stroke="#666666" d="M972.82,-699.41C972.13,-678.39 971.25,-651.7 970.51,-629.18"/>
<polygon fill="#666666" stroke="#666666" points="974.01,-629.04 970.19,-619.16 967.01,-629.27 974.01,-629.04"/>
<text text-anchor="middle" x="996.5" y="-668.4" font-family="Noto Sans SC" font-size="12.00">执行处理</text>
</g>
<!-- CleanupEntries -->
<g id="node17" class="node">
<title>CleanupEntries</title>
<path fill="#ffd9e6" stroke="#333333" d="M1733,-446C1733,-446 1565,-446 1565,-446 1559,-446 1553,-440 1553,-434 1553,-434 1553,-384 1553,-384 1553,-378 1559,-372 1565,-372 1565,-372 1733,-372 1733,-372 1739,-372 1745,-378 1745,-384 1745,-384 1745,-434 1745,-434 1745,-440 1739,-446 1733,-446"/>
<text text-anchor="middle" x="1649" y="-412.8" font-family="Noto Sans SC" font-size="14.00">cleanup_old_entries()</text>
<text text-anchor="middle" x="1649" y="-397.8" font-family="Noto Sans SC" font-size="14.00">清理过期条目</text>
</g>
<!-- WorkerProcess&#45;&gt;CleanupEntries -->
<g id="edge19" class="edge">
<title>WorkerProcess&#45;&gt;CleanupEntries</title>
<path fill="none" stroke="#666666" d="M1055.08,-732.31C1186.27,-725.66 1437.71,-706.66 1510,-657 1580.02,-608.9 1618.81,-513.35 1636.65,-456.22"/>
<polygon fill="#666666" stroke="#666666" points="1640.09,-456.95 1639.64,-446.36 1633.39,-454.92 1640.09,-456.95"/>
<text text-anchor="middle" x="1637.5" y="-578.9" font-family="Noto Sans SC" font-size="12.00">定期清理</text>
</g>
<!-- ImagesToText -->
<g id="node5" class="node">
<title>ImagesToText</title>
<path fill="#ffcc99" stroke="#333333" d="M273.5,-446C273.5,-446 138.5,-446 138.5,-446 132.5,-446 126.5,-440 126.5,-434 126.5,-434 126.5,-384 126.5,-384 126.5,-378 132.5,-372 138.5,-372 138.5,-372 273.5,-372 273.5,-372 279.5,-372 285.5,-378 285.5,-384 285.5,-384 285.5,-434 285.5,-434 285.5,-440 279.5,-446 273.5,-446"/>
<text text-anchor="middle" x="206" y="-412.8" font-family="Noto Sans SC" font-size="14.00">images_to_text()</text>
<text text-anchor="middle" x="206" y="-397.8" font-family="Noto Sans SC" font-size="14.00">多图像处理</text>
</g>
<!-- ProcessTask&#45;&gt;ImagesToText -->
<g id="edge12" class="edge">
<title>ProcessTask&#45;&gt;ImagesToText</title>
<path fill="none" stroke="#666666" d="M896.56,-579.25C775.35,-574.32 525.35,-555.52 328,-484 305.89,-475.99 283.39,-463.74 263.85,-451.5"/>
<polygon fill="#666666" stroke="#666666" points="265.68,-448.52 255.37,-446.08 261.91,-454.41 265.68,-448.52"/>
<text text-anchor="middle" x="402.5" y="-495.4" font-family="Noto Sans SC" font-size="12.00">处理图像</text>
</g>
<!-- CallLLM -->
<g id="node7" class="node">
<title>CallLLM</title>
<path fill="#e6ccff" stroke="#333333" d="M843.5,-293C843.5,-293 740.5,-293 740.5,-293 734.5,-293 728.5,-287 728.5,-281 728.5,-281 728.5,-231 728.5,-231 728.5,-225 734.5,-219 740.5,-219 740.5,-219 843.5,-219 843.5,-219 849.5,-219 855.5,-225 855.5,-231 855.5,-231 855.5,-281 855.5,-281 855.5,-287 849.5,-293 843.5,-293"/>
<text text-anchor="middle" x="792" y="-259.8" font-family="Noto Sans SC" font-size="14.00">call_llm()</text>
<text text-anchor="middle" x="792" y="-244.8" font-family="Noto Sans SC" font-size="14.00">LLM API调用</text>
</g>
<!-- ProcessTask&#45;&gt;CallLLM -->
<g id="edge16" class="edge">
<title>ProcessTask&#45;&gt;CallLLM</title>
<path fill="none" stroke="#666666" d="M996.45,-544.95C1004.2,-532.88 1011.68,-518.93 1016,-505 1028.46,-464.82 1067.17,-438.15 1017,-360 983.8,-308.29 917.46,-282.21 865.38,-269.26"/>
<polygon fill="#666666" stroke="#666666" points="866.04,-265.82 855.5,-266.92 864.42,-272.63 866.04,-265.82"/>
<text text-anchor="middle" x="1066.5" y="-405.9" font-family="Noto Sans SC" font-size="12.00">调用LLM</text>
</g>
<!-- PromptDoc -->
<g id="node8" class="node">
<title>PromptDoc</title>
<path fill="#e6ccff" stroke="#333333" d="M541.5,-446C541.5,-446 356.5,-446 356.5,-446 350.5,-446 344.5,-440 344.5,-434 344.5,-434 344.5,-384 344.5,-384 344.5,-378 350.5,-372 356.5,-372 356.5,-372 541.5,-372 541.5,-372 547.5,-372 553.5,-378 553.5,-384 553.5,-384 553.5,-434 553.5,-434 553.5,-440 547.5,-446 541.5,-446"/>
<text text-anchor="middle" x="449" y="-412.8" font-family="Noto Sans SC" font-size="14.00">construct_prompt_doc()</text>
<text text-anchor="middle" x="449" y="-397.8" font-family="Noto Sans SC" font-size="14.00">文档提示构建</text>
</g>
<!-- ProcessTask&#45;&gt;PromptDoc -->
<g id="edge13" class="edge">
<title>ProcessTask&#45;&gt;PromptDoc</title>
<path fill="none" stroke="#666666" d="M896.98,-571.39C813.94,-558.61 674.56,-531.84 563,-484 543.15,-475.49 522.93,-463.6 505.13,-451.85"/>
<polygon fill="#666666" stroke="#666666" points="506.85,-448.79 496.6,-446.1 502.94,-454.59 506.85,-448.79"/>
<text text-anchor="middle" x="651.5" y="-495.4" font-family="Noto Sans SC" font-size="12.00">构建文档提示</text>
</g>
<!-- PromptForm -->
<g id="node9" class="node">
<title>PromptForm</title>
<path fill="#e6ccff" stroke="#333333" d="M776,-446C776,-446 584,-446 584,-446 578,-446 572,-440 572,-434 572,-434 572,-384 572,-384 572,-378 578,-372 584,-372 584,-372 776,-372 776,-372 782,-372 788,-378 788,-384 788,-384 788,-434 788,-434 788,-440 782,-446 776,-446"/>
<text text-anchor="middle" x="680" y="-412.8" font-family="Noto Sans SC" font-size="14.00">construct_prompt_form()</text>
<text text-anchor="middle" x="680" y="-397.8" font-family="Noto Sans SC" font-size="14.00">表单提示构建</text>
</g>
<!-- ProcessTask&#45;&gt;PromptForm -->
<g id="edge14" class="edge">
<title>ProcessTask&#45;&gt;PromptForm</title>
<path fill="none" stroke="#666666" d="M903.65,-544.82C871.62,-526.86 832.58,-504.64 798,-484 780.76,-473.71 762.29,-462.31 745.2,-451.61"/>
<polygon fill="#666666" stroke="#666666" points="746.74,-448.44 736.41,-446.08 743.01,-454.36 746.74,-448.44"/>
<text text-anchor="middle" x="866.5" y="-495.4" font-family="Noto Sans SC" font-size="12.00">构建表单提示</text>
</g>
<!-- PromptFill -->
<g id="node10" class="node">
<title>PromptFill</title>
<path fill="#e6ccff" stroke="#333333" d="M995.5,-446C995.5,-446 818.5,-446 818.5,-446 812.5,-446 806.5,-440 806.5,-434 806.5,-434 806.5,-384 806.5,-384 806.5,-378 812.5,-372 818.5,-372 818.5,-372 995.5,-372 995.5,-372 1001.5,-372 1007.5,-378 1007.5,-384 1007.5,-384 1007.5,-434 1007.5,-434 1007.5,-440 1001.5,-446 995.5,-446"/>
<text text-anchor="middle" x="907" y="-412.8" font-family="Noto Sans SC" font-size="14.00">construct_prompt_fill()</text>
<text text-anchor="middle" x="907" y="-397.8" font-family="Noto Sans SC" font-size="14.00">填充提示构建</text>
</g>
<!-- ProcessTask&#45;&gt;PromptFill -->
<g id="edge15" class="edge">
<title>ProcessTask&#45;&gt;PromptFill</title>
<path fill="none" stroke="#666666" d="M955.85,-544.74C946.44,-518.78 933.7,-483.63 923.59,-455.75"/>
<polygon fill="#666666" stroke="#666666" points="926.83,-454.42 920.13,-446.21 920.25,-456.81 926.83,-454.42"/>
<text text-anchor="middle" x="975.5" y="-495.4" font-family="Noto Sans SC" font-size="12.00">构建填充提示</text>
</g>
<!-- WriteResult -->
<g id="node15" class="node">
<title>WriteResult</title>
<path fill="#ffd9e6" stroke="#333333" d="M1307.5,-446C1307.5,-446 1128.5,-446 1128.5,-446 1122.5,-446 1116.5,-440 1116.5,-434 1116.5,-434 1116.5,-384 1116.5,-384 1116.5,-378 1122.5,-372 1128.5,-372 1128.5,-372 1307.5,-372 1307.5,-372 1313.5,-372 1319.5,-378 1319.5,-384 1319.5,-384 1319.5,-434 1319.5,-434 1319.5,-440 1313.5,-446 1307.5,-446"/>
<text text-anchor="middle" x="1218" y="-412.8" font-family="Noto Sans SC" font-size="14.00">write_result_to_cache()</text>
<text text-anchor="middle" x="1218" y="-397.8" font-family="Noto Sans SC" font-size="14.00">写入结果</text>
</g>
<!-- ProcessTask&#45;&gt;WriteResult -->
<g id="edge17" class="edge">
<title>ProcessTask&#45;&gt;WriteResult</title>
<path fill="none" stroke="#666666" d="M1021.5,-544.94C1061.15,-517.72 1115.63,-480.3 1157.18,-451.77"/>
<polygon fill="#666666" stroke="#666666" points="1159.31,-454.55 1165.57,-446.01 1155.34,-448.78 1159.31,-454.55"/>
<text text-anchor="middle" x="1117.5" y="-495.4" font-family="Noto Sans SC" font-size="12.00">存储结果</text>
</g>
<!-- WriteError -->
<g id="node16" class="node">
<title>WriteError</title>
<path fill="#ffd9e6" stroke="#333333" d="M1522.5,-446C1522.5,-446 1349.5,-446 1349.5,-446 1343.5,-446 1337.5,-440 1337.5,-434 1337.5,-434 1337.5,-384 1337.5,-384 1337.5,-378 1343.5,-372 1349.5,-372 1349.5,-372 1522.5,-372 1522.5,-372 1528.5,-372 1534.5,-378 1534.5,-384 1534.5,-384 1534.5,-434 1534.5,-434 1534.5,-440 1528.5,-446 1522.5,-446"/>
<text text-anchor="middle" x="1436" y="-412.8" font-family="Noto Sans SC" font-size="14.00">write_error_to_cache()</text>
<text text-anchor="middle" x="1436" y="-397.8" font-family="Noto Sans SC" font-size="14.00">写入错误</text>
</g>
<!-- ProcessTask&#45;&gt;WriteError -->
<g id="edge18" class="edge">
<title>ProcessTask&#45;&gt;WriteError</title>
<path fill="none" stroke="#666666" d="M1030.69,-544.9C1052.3,-533.7 1077.13,-522.37 1101,-515 1107.11,-513.11 1323.04,-486.31 1329,-484 1348.81,-476.31 1368.52,-464.28 1385.52,-452.13"/>
<polygon fill="#666666" stroke="#666666" points="1387.64,-454.91 1393.64,-446.18 1383.5,-449.27 1387.64,-454.91"/>
<text text-anchor="middle" x="1296.5" y="-495.4" font-family="Noto Sans SC" font-size="12.00">存储错误</text>
</g>
<!-- PerformOCR -->
<g id="node4" class="node">
<title>PerformOCR</title>
<path fill="#ffcc99" stroke="#333333" d="M278.5,-293C278.5,-293 105.5,-293 105.5,-293 99.5,-293 93.5,-287 93.5,-281 93.5,-281 93.5,-231 93.5,-231 93.5,-225 99.5,-219 105.5,-219 105.5,-219 278.5,-219 278.5,-219 284.5,-219 290.5,-225 290.5,-231 290.5,-231 290.5,-281 290.5,-281 290.5,-287 284.5,-293 278.5,-293"/>
<text text-anchor="middle" x="192" y="-259.8" font-family="Noto Sans SC" font-size="14.00">perform_ocr_base64()</text>
<text text-anchor="middle" x="192" y="-244.8" font-family="Noto Sans SC" font-size="14.00">单图像处理</text>
</g>
<!-- OCRSemaphore -->
<g id="node6" class="node">
<title>OCRSemaphore</title>
<path fill="#ffcc99" stroke="#333333" d="M159.24,-162.69C159.24,-162.69 30.76,-99.31 30.76,-99.31 25.38,-96.65 25.38,-91.35 30.76,-88.69 30.76,-88.69 159.24,-25.31 159.24,-25.31 164.62,-22.65 175.38,-22.65 180.76,-25.31 180.76,-25.31 309.24,-88.69 309.24,-88.69 314.62,-91.35 314.62,-96.65 309.24,-99.31 309.24,-99.31 180.76,-162.69 180.76,-162.69 175.38,-165.35 164.62,-165.35 159.24,-162.69"/>
<text text-anchor="middle" x="170" y="-97.8" font-family="Noto Sans SC" font-size="14.00">ocr_semaphore</text>
<text text-anchor="middle" x="170" y="-82.8" font-family="Noto Sans SC" font-size="14.00">并发控制</text>
</g>
<!-- PerformOCR&#45;&gt;OCRSemaphore -->
<g id="edge4" class="edge">
<title>PerformOCR&#45;&gt;OCRSemaphore</title>
<path fill="none" stroke="#666666" d="M187.01,-218.69C185.17,-205.31 183,-189.56 180.85,-173.88"/>
<polygon fill="#666666" stroke="#666666" points="184.26,-173.04 179.43,-163.61 177.33,-173.99 184.26,-173.04"/>
<text text-anchor="middle" x="209.5" y="-189.4" font-family="Noto Sans SC" font-size="12.00">限制并发</text>
</g>
<!-- ImagesToText&#45;&gt;PerformOCR -->
<g id="edge3" class="edge">
<title>ImagesToText&#45;&gt;PerformOCR</title>
<path fill="none" stroke="#666666" d="M202.65,-371.83C200.74,-351.27 198.33,-325.31 196.29,-303.27"/>
<polygon fill="#666666" stroke="#666666" points="199.76,-302.77 195.35,-293.13 192.79,-303.41 199.76,-302.77"/>
<text text-anchor="middle" x="225.5" y="-342.4" font-family="Noto Sans SC" font-size="12.00">并行调用</text>
</g>
<!-- PromptDoc&#45;&gt;CallLLM -->
<g id="edge5" class="edge">
<title>PromptDoc&#45;&gt;CallLLM</title>
<path fill="none" stroke="#666666" d="M531.16,-371.83C588.39,-346.63 664.05,-313.33 719.14,-289.08"/>
<polygon fill="#666666" stroke="#666666" points="720.74,-292.2 728.48,-284.96 717.92,-285.79 720.74,-292.2"/>
<text text-anchor="middle" x="623.5" y="-342.4" font-family="Noto Sans SC" font-size="12.00">提供提示</text>
</g>
<!-- PromptForm&#45;&gt;CallLLM -->
<g id="edge6" class="edge">
<title>PromptForm&#45;&gt;CallLLM</title>
<path fill="none" stroke="#666666" d="M706.83,-371.83C722.56,-350.62 742.56,-323.66 759.22,-301.19"/>
<polygon fill="#666666" stroke="#666666" points="762.05,-303.25 765.2,-293.13 756.43,-299.08 762.05,-303.25"/>
<text text-anchor="middle" x="753.5" y="-342.4" font-family="Noto Sans SC" font-size="12.00">提供提示</text>
</g>
<!-- PromptFill&#45;&gt;CallLLM -->
<g id="edge7" class="edge">
<title>PromptFill&#45;&gt;CallLLM</title>
<path fill="none" stroke="#666666" d="M879.45,-371.83C863.3,-350.62 842.76,-323.66 825.65,-301.19"/>
<polygon fill="#666666" stroke="#666666" points="828.36,-298.97 819.52,-293.13 822.79,-303.21 828.36,-298.97"/>
<text text-anchor="middle" x="887.5" y="-342.4" font-family="Noto Sans SC" font-size="12.00">提供提示</text>
</g>
<!-- RSADecrypt -->
<g id="node11" class="node">
<title>RSADecrypt</title>
<path fill="#b3ffb3" stroke="#333333" d="M1462,-293C1462,-293 1318,-293 1318,-293 1312,-293 1306,-287 1306,-281 1306,-281 1306,-231 1306,-231 1306,-225 1312,-219 1318,-219 1318,-219 1462,-219 1462,-219 1468,-219 1474,-225 1474,-231 1474,-231 1474,-281 1474,-281 1474,-287 1468,-293 1462,-293"/>
<text text-anchor="middle" x="1390" y="-259.8" font-family="Noto Sans SC" font-size="14.00">rsa_decrypt_key()</text>
<text text-anchor="middle" x="1390" y="-244.8" font-family="Noto Sans SC" font-size="14.00">RSA解密</text>
</g>
<!-- AESDecrypt -->
<g id="node13" class="node">
<title>AESDecrypt</title>
<path fill="#b3ffb3" stroke="#333333" d="M1447.5,-131C1447.5,-131 1332.5,-131 1332.5,-131 1326.5,-131 1320.5,-125 1320.5,-119 1320.5,-119 1320.5,-69 1320.5,-69 1320.5,-63 1326.5,-57 1332.5,-57 1332.5,-57 1447.5,-57 1447.5,-57 1453.5,-57 1459.5,-63 1459.5,-69 1459.5,-69 1459.5,-119 1459.5,-119 1459.5,-125 1453.5,-131 1447.5,-131"/>
<text text-anchor="middle" x="1390" y="-97.8" font-family="Noto Sans SC" font-size="14.00">aes_decrypt()</text>
<text text-anchor="middle" x="1390" y="-82.8" font-family="Noto Sans SC" font-size="14.00">AES解密</text>
</g>
<!-- RSADecrypt&#45;&gt;AESDecrypt -->
<g id="edge8" class="edge">
<title>RSADecrypt&#45;&gt;AESDecrypt</title>
<path fill="none" stroke="#666666" d="M1390,-218.69C1390,-195.78 1390,-165.97 1390,-141.36"/>
<polygon fill="#666666" stroke="#666666" points="1393.5,-141.16 1390,-131.16 1386.5,-141.16 1393.5,-141.16"/>
<text text-anchor="middle" x="1414.5" y="-189.4" font-family="Noto Sans SC" font-size="12.00">提供密钥</text>
</g>
<!-- AESEncrypt -->
<g id="node12" class="node">
<title>AESEncrypt</title>
<path fill="#b3ffb3" stroke="#333333" d="M1275.5,-293C1275.5,-293 1160.5,-293 1160.5,-293 1154.5,-293 1148.5,-287 1148.5,-281 1148.5,-281 1148.5,-231 1148.5,-231 1148.5,-225 1154.5,-219 1160.5,-219 1160.5,-219 1275.5,-219 1275.5,-219 1281.5,-219 1287.5,-225 1287.5,-231 1287.5,-231 1287.5,-281 1287.5,-281 1287.5,-287 1281.5,-293 1275.5,-293"/>
<text text-anchor="middle" x="1218" y="-259.8" font-family="Noto Sans SC" font-size="14.00">aes_encrypt()</text>
<text text-anchor="middle" x="1218" y="-244.8" font-family="Noto Sans SC" font-size="14.00">AES加密</text>
</g>
<!-- InitDB -->
<g id="node14" class="node">
<title>InitDB</title>
<path fill="#ffd9e6" stroke="#333333" d="M1489,-619C1489,-619 1383,-619 1383,-619 1377,-619 1371,-613 1371,-607 1371,-607 1371,-557 1371,-557 1371,-551 1377,-545 1383,-545 1383,-545 1489,-545 1489,-545 1495,-545 1501,-551 1501,-557 1501,-557 1501,-607 1501,-607 1501,-613 1495,-619 1489,-619"/>
<text text-anchor="middle" x="1436" y="-585.8" font-family="Noto Sans SC" font-size="14.00">init_db()</text>
<text text-anchor="middle" x="1436" y="-570.8" font-family="Noto Sans SC" font-size="14.00">初始化数据库</text>
</g>
<!-- InitDB&#45;&gt;WriteResult -->
<g id="edge9" class="edge">
<title>InitDB&#45;&gt;WriteResult</title>
<path fill="none" stroke="#666666" d="M1390.03,-544.94C1355.54,-517.89 1308.22,-480.77 1271.94,-452.31"/>
<polygon fill="#666666" stroke="#666666" points="1273.93,-449.42 1263.9,-446.01 1269.61,-454.93 1273.93,-449.42"/>
<text text-anchor="middle" x="1357.5" y="-495.4" font-family="Noto Sans SC" font-size="12.00">提供连接</text>
</g>
<!-- InitDB&#45;&gt;WriteError -->
<g id="edge10" class="edge">
<title>InitDB&#45;&gt;WriteError</title>
<path fill="none" stroke="#666666" d="M1436,-544.74C1436,-519 1436,-484.25 1436,-456.48"/>
<polygon fill="#666666" stroke="#666666" points="1439.5,-456.21 1436,-446.21 1432.5,-456.21 1439.5,-456.21"/>
<text text-anchor="middle" x="1460.5" y="-495.4" font-family="Noto Sans SC" font-size="12.00">提供连接</text>
</g>
<!-- InitDB&#45;&gt;CleanupEntries -->
<g id="edge11" class="edge">
<title>InitDB&#45;&gt;CleanupEntries</title>
<path fill="none" stroke="#666666" d="M1480.91,-544.94C1514.61,-517.89 1560.85,-480.77 1596.3,-452.31"/>
<polygon fill="#666666" stroke="#666666" points="1598.54,-455 1604.15,-446.01 1594.16,-449.54 1598.54,-455"/>
<text text-anchor="middle" x="1566.5" y="-495.4" font-family="Noto Sans SC" font-size="12.00">提供连接</text>
</g>
<!-- WriteResult&#45;&gt;AESEncrypt -->
<g id="edge20" class="edge">
<title>WriteResult&#45;&gt;AESEncrypt</title>
<path fill="none" stroke="#666666" d="M1218,-371.83C1218,-351.27 1218,-325.31 1218,-303.27"/>
<polygon fill="#666666" stroke="#666666" points="1221.5,-303.13 1218,-293.13 1214.5,-303.13 1221.5,-303.13"/>
<text text-anchor="middle" x="1242.5" y="-342.4" font-family="Noto Sans SC" font-size="12.00">加密结果</text>
</g>
<!-- legend_function -->
<g id="node18" class="node">
<title>legend_function</title>
<path fill="#b3e0ff" stroke="#333333" d="M1895.5,-906.5C1895.5,-906.5 1846.5,-906.5 1846.5,-906.5 1840.5,-906.5 1834.5,-900.5 1834.5,-894.5 1834.5,-894.5 1834.5,-859.5 1834.5,-859.5 1834.5,-853.5 1840.5,-847.5 1846.5,-847.5 1846.5,-847.5 1895.5,-847.5 1895.5,-847.5 1901.5,-847.5 1907.5,-853.5 1907.5,-859.5 1907.5,-859.5 1907.5,-894.5 1907.5,-894.5 1907.5,-900.5 1901.5,-906.5 1895.5,-906.5"/>
<text text-anchor="middle" x="1871" y="-873.3" font-family="Noto Sans SC" font-size="14.00">函数</text>
</g>
<!-- legend_data -->
<g id="node19" class="node">
<title>legend_data</title>
<path fill="#ffcc99" stroke="#333333" d="M1922,-769.8C1922,-773.88 1899.14,-777.19 1871,-777.19 1842.86,-777.19 1820,-773.88 1820,-769.8 1820,-769.8 1820,-703.32 1820,-703.32 1820,-699.25 1842.86,-695.94 1871,-695.94 1899.14,-695.94 1922,-699.25 1922,-703.32 1922,-703.32 1922,-769.8 1922,-769.8"/>
<path fill="none" stroke="#333333" d="M1922,-769.8C1922,-765.73 1899.14,-762.41 1871,-762.41 1842.86,-762.41 1820,-765.73 1820,-769.8"/>
<text text-anchor="middle" x="1871" y="-732.86" font-family="Noto Sans SC" font-size="14.00">数据结构</text>
</g>
<!-- legend_function&#45;&gt;legend_data -->
<!-- legend_control -->
<g id="node20" class="node">
<title>legend_control</title>
<path fill="#b3ffb3" stroke="#333333" d="M1860.61,-634.99C1860.61,-634.99 1779.39,-588.01 1779.39,-588.01 1774.19,-585 1774.19,-579 1779.39,-575.99 1779.39,-575.99 1860.61,-529.01 1860.61,-529.01 1865.81,-526 1876.19,-526 1881.39,-529.01 1881.39,-529.01 1962.61,-575.99 1962.61,-575.99 1967.81,-579 1967.81,-585 1962.61,-588.01 1962.61,-588.01 1881.39,-634.99 1881.39,-634.99 1876.19,-638 1865.81,-638 1860.61,-634.99"/>
<text text-anchor="middle" x="1871" y="-578.3" font-family="Noto Sans SC" font-size="14.00">控制结构</text>
</g>
<!-- legend_data&#45;&gt;legend_control -->
</g>
</svg>
