<?xml version="1.0" encoding="UTF-8" standalone="no"?>
<!DOCTYPE svg PUBLIC "-//W3C//DTD SVG 1.1//EN"
 "http://www.w3.org/Graphics/SVG/1.1/DTD/svg11.dtd">
<!-- Generated by graphviz version 2.43.0 (0)
 -->
<!-- Title: DocuSnap_Backend_Data_Flow Pages: 1 -->
<svg width="2112pt" height="804pt"
 viewBox="36.00 36.00 2076.00 768.00" xmlns="http://www.w3.org/2000/svg" xmlns:xlink="http://www.w3.org/1999/xlink">
<g id="graph0" class="graph" transform="scale(1 1) rotate(0) translate(40 764)">
<title>DocuSnap_Backend_Data_Flow</title>
<polygon fill="white" stroke="transparent" points="-4,4 -4,-728 2036,-728 2036,4 -4,4"/>
<text text-anchor="middle" x="1016" y="-707.2" font-family="Noto Sans SC" font-size="16.00">DocuSnap&#45;Backend 数据流程图</text>
<g id="clust1" class="cluster">
<title>cluster_notes</title>
<path fill="#ffffee" stroke="black" d="M20,-436C20,-436 1402,-436 1402,-436 1408,-436 1414,-442 1414,-448 1414,-448 1414,-548 1414,-548 1414,-554 1408,-560 1402,-560 1402,-560 20,-560 20,-560 14,-560 8,-554 8,-548 8,-548 8,-448 8,-448 8,-442 14,-436 20,-436"/>
<text text-anchor="middle" x="711" y="-543.2" font-family="Noto Sans SC" font-size="16.00">处理说明</text>
</g>
<g id="clust2" class="cluster">
<title>cluster_legend</title>
<path fill="white" stroke="black" d="M94.38,-564C94.38,-564 2012,-564 2012,-564 2018,-564 2024,-570 2024,-576 2024,-576 2024,-678 2024,-678 2024,-684 2018,-690 2012,-690 2012,-690 94.38,-690 94.38,-690 88.38,-690 82.38,-684 82.38,-678 82.38,-678 82.38,-576 82.38,-576 82.38,-570 88.38,-564 94.38,-564"/>
<text text-anchor="middle" x="1053.19" y="-673.2" font-family="Noto Sans SC" font-size="16.00">图例</text>
</g>
<!-- Client -->
<g id="node1" class="node">
<title>Client</title>
<ellipse fill="#e6f2ff" stroke="#333333" cx="162.5" cy="-286" rx="61.54" ry="41.94"/>
<text text-anchor="middle" x="162.5" y="-282.3" font-family="Noto Sans SC" font-size="14.00">客户端</text>
</g>
<!-- API -->
<g id="node2" class="node">
<title>API</title>
<path fill="#b3e0ff" stroke="#333333" d="M756,-323C756,-323 667,-323 667,-323 661,-323 655,-317 655,-311 655,-311 655,-261 655,-261 655,-255 661,-249 667,-249 667,-249 756,-249 756,-249 762,-249 768,-255 768,-261 768,-261 768,-311 768,-311 768,-317 762,-323 756,-323"/>
<text text-anchor="middle" x="711.5" y="-289.8" font-family="Noto Sans SC" font-size="14.00">API 层</text>
<text text-anchor="middle" x="711.5" y="-274.8" font-family="Noto Sans SC" font-size="14.00">(/process)</text>
</g>
<!-- Client&#45;&gt;API -->
<g id="edge1" class="edge">
<title>Client&#45;&gt;API</title>
<path fill="none" stroke="#666666" d="M212.34,-310.85C243.19,-325.13 284.39,-341.65 323,-349 404.21,-364.46 427.28,-361.48 509,-349 555.6,-341.89 606.23,-326.02 645.08,-311.99"/>
<polygon fill="#666666" stroke="#666666" points="646.51,-315.2 654.69,-308.47 644.1,-308.62 646.51,-315.2"/>
<text text-anchor="middle" x="416" y="-376.4" font-family="Noto Sans SC" font-size="12.00">1. 发送加密请求</text>
<text text-anchor="middle" x="416" y="-363.4" font-family="Noto Sans SC" font-size="12.00">(RSA加密AES密钥+AES加密内容)</text>
</g>
<!-- Client&#45;&gt;API -->
<g id="edge16" class="edge">
<title>Client&#45;&gt;API</title>
<path fill="none" stroke="#666666" d="M221.53,-298.23C251.65,-303.97 289.14,-310.15 323,-313 405.38,-319.92 426.52,-318.5 509,-313 554.52,-309.96 605.44,-303.11 644.7,-297.07"/>
<polygon fill="#666666" stroke="#666666" points="645.34,-300.51 654.68,-295.51 644.26,-293.6 645.34,-300.51"/>
<text text-anchor="middle" x="416" y="-321.4" font-family="Noto Sans SC" font-size="12.00">15. 轮询任务状态</text>
</g>
<!-- API&#45;&gt;Client -->
<g id="edge5" class="edge">
<title>API&#45;&gt;Client</title>
<path fill="none" stroke="#999999" stroke-dasharray="5,2" d="M654.94,-286C554.82,-286 344.33,-286 234.15,-286"/>
<polygon fill="#999999" stroke="#999999" points="234.13,-282.5 224.13,-286 234.13,-289.5 234.13,-282.5"/>
<text text-anchor="middle" x="416" y="-302.4" font-family="Noto Sans SC" font-size="12.00">5a. 如果任务已存在</text>
<text text-anchor="middle" x="416" y="-289.4" font-family="Noto Sans SC" font-size="12.00">返回任务状态/结果</text>
</g>
<!-- API&#45;&gt;Client -->
<g id="edge8" class="edge">
<title>API&#45;&gt;Client</title>
<path fill="none" stroke="#666666" d="M654.99,-280.05C614.56,-276.03 558.46,-271.08 509,-269 426.41,-265.52 405.55,-264.61 323,-269 293.53,-270.57 261.12,-273.75 233.26,-276.94"/>
<polygon fill="#666666" stroke="#666666" points="232.74,-273.48 223.22,-278.12 233.55,-280.43 232.74,-273.48"/>
<text text-anchor="middle" x="416" y="-272.4" font-family="Noto Sans SC" font-size="12.00">7. 返回processing状态</text>
</g>
<!-- API&#45;&gt;Client -->
<g id="edge20" class="edge">
<title>API&#45;&gt;Client</title>
<path fill="none" stroke="#666666" d="M654.83,-273.32C614.57,-264.82 558.73,-254.41 509,-250 426.66,-242.7 405.16,-240.84 323,-250 291.83,-253.47 257.86,-260.65 229.31,-267.69"/>
<polygon fill="#666666" stroke="#666666" points="228.3,-264.34 219.45,-270.17 230,-271.13 228.3,-264.34"/>
<text text-anchor="middle" x="416" y="-253.4" font-family="Noto Sans SC" font-size="12.00">19. 返回加密结果</text>
</g>
<!-- API&#45;&gt;API -->
<g id="edge2" class="edge">
<title>API&#45;&gt;API</title>
<path fill="none" stroke="#666666" stroke-dasharray="5,2" d="M688.02,-323.02C689.15,-333.21 696.98,-341 711.5,-341 721.03,-341 727.67,-337.64 731.44,-332.46"/>
<polygon fill="#666666" stroke="#666666" points="734.75,-333.61 734.98,-323.02 728.19,-331.15 734.75,-333.61"/>
<text text-anchor="middle" x="711.5" y="-383.4" font-family="Noto Sans SC" font-size="12.00">2. 解密请求</text>
<text text-anchor="middle" x="711.5" y="-370.4" font-family="Noto Sans SC" font-size="12.00">(RSA解密AES密钥</text>
<text text-anchor="middle" x="711.5" y="-357.4" font-family="Noto Sans SC" font-size="12.00">AES解密内容</text>
<text text-anchor="middle" x="711.5" y="-344.4" font-family="Noto Sans SC" font-size="12.00">验证SHA256哈希)</text>
</g>
<!-- API&#45;&gt;API -->
<g id="edge19" class="edge">
<title>API&#45;&gt;API</title>
<path fill="none" stroke="#666666" stroke-dasharray="5,2" d="M670.09,-323.26C655.12,-355.25 668.93,-393 711.5,-393 749.92,-393 764.91,-362.26 756.47,-332.75"/>
<polygon fill="#666666" stroke="#666666" points="759.7,-331.39 752.91,-323.26 753.14,-333.85 759.7,-331.39"/>
<text text-anchor="middle" x="711.5" y="-396.4" font-family="Noto Sans SC" font-size="12.00">18. AES加密结果</text>
</g>
<!-- Cache -->
<g id="node3" class="node">
<title>Cache</title>
<path fill="#b3ffb3" stroke="#333333" d="M2023,-327.52C2023,-332.61 1997,-336.75 1965,-336.75 1933,-336.75 1907,-332.61 1907,-327.52 1907,-327.52 1907,-244.48 1907,-244.48 1907,-239.39 1933,-235.25 1965,-235.25 1997,-235.25 2023,-239.39 2023,-244.48 2023,-244.48 2023,-327.52 2023,-327.52"/>
<path fill="none" stroke="#333333" d="M2023,-327.52C2023,-322.43 1997,-318.3 1965,-318.3 1933,-318.3 1907,-322.43 1907,-327.52"/>
<text text-anchor="middle" x="1965" y="-289.8" font-family="Noto Sans SC" font-size="14.00">缓存数据库</text>
<text text-anchor="middle" x="1965" y="-274.8" font-family="Noto Sans SC" font-size="14.00">(SQLite)</text>
</g>
<!-- API&#45;&gt;Cache -->
<g id="edge3" class="edge">
<title>API&#45;&gt;Cache</title>
<path fill="none" stroke="#666666" d="M768.1,-283.45C909.28,-277.3 1293.13,-262.71 1613,-270 1711.81,-272.25 1826.16,-278.06 1896.78,-282.03"/>
<polygon fill="#666666" stroke="#666666" points="1896.7,-285.53 1906.88,-282.6 1897.09,-278.54 1896.7,-285.53"/>
<text text-anchor="middle" x="1517.5" y="-273.4" font-family="Noto Sans SC" font-size="12.00">3. 检查任务状态</text>
</g>
<!-- API&#45;&gt;Cache -->
<g id="edge6" class="edge">
<title>API&#45;&gt;Cache</title>
<path fill="none" stroke="#666666" d="M768.1,-278.85C909.3,-261.61 1293.19,-220.52 1613,-239 1736.28,-246.12 1767.02,-251.76 1889,-271 1891.52,-271.4 1894.09,-271.82 1896.69,-272.26"/>
<polygon fill="#666666" stroke="#666666" points="1896.3,-275.75 1906.76,-274.05 1897.52,-268.86 1896.3,-275.75"/>
<text text-anchor="middle" x="1517.5" y="-255.4" font-family="Noto Sans SC" font-size="12.00">5b. 如果是新任务</text>
<text text-anchor="middle" x="1517.5" y="-242.4" font-family="Noto Sans SC" font-size="12.00">创建任务记录(status=processing)</text>
</g>
<!-- API&#45;&gt;Cache -->
<g id="edge17" class="edge">
<title>API&#45;&gt;Cache</title>
<path fill="none" stroke="#666666" d="M768.35,-303.29C808.46,-314.93 864.04,-329.48 914,-337 965.93,-344.81 979.5,-341.67 1032,-343 1290.14,-349.56 1354.79,-344.05 1613,-342 1735.67,-341.03 1772.29,-376.78 1889,-339 1891.94,-338.05 1894.86,-336.94 1897.76,-335.7"/>
<polygon fill="#666666" stroke="#666666" points="1899.37,-338.8 1906.88,-331.33 1896.35,-332.49 1899.37,-338.8"/>
<text text-anchor="middle" x="1517.5" y="-348.4" font-family="Noto Sans SC" font-size="12.00">16. 获取任务状态/结果</text>
</g>
<!-- Queue -->
<g id="node4" class="node">
<title>Queue</title>
<path fill="#ffe6cc" stroke="#333333" d="M1268,-172.24C1268,-176.31 1245.14,-179.63 1217,-179.63 1188.86,-179.63 1166,-176.31 1166,-172.24 1166,-172.24 1166,-105.76 1166,-105.76 1166,-101.69 1188.86,-98.37 1217,-98.37 1245.14,-98.37 1268,-101.69 1268,-105.76 1268,-105.76 1268,-172.24 1268,-172.24"/>
<path fill="none" stroke="#333333" d="M1268,-172.24C1268,-168.16 1245.14,-164.85 1217,-164.85 1188.86,-164.85 1166,-168.16 1166,-172.24"/>
<text text-anchor="middle" x="1217" y="-135.3" font-family="Noto Sans SC" font-size="14.00">任务队列</text>
</g>
<!-- API&#45;&gt;Queue -->
<g id="edge7" class="edge">
<title>API&#45;&gt;Queue</title>
<path fill="none" stroke="#666666" d="M768.17,-254.74C807.73,-233.79 862.73,-207.17 914,-191 995.71,-165.23 1094.12,-151.3 1155.89,-144.52"/>
<polygon fill="#666666" stroke="#666666" points="1156.29,-148 1165.86,-143.45 1155.54,-141.04 1156.29,-148"/>
<text text-anchor="middle" x="964" y="-194.4" font-family="Noto Sans SC" font-size="12.00">6. 添加任务到队列</text>
</g>
<!-- Cache&#45;&gt;API -->
<g id="edge4" class="edge">
<title>Cache&#45;&gt;API</title>
<path fill="none" stroke="#666666" d="M1906.64,-314C1900.79,-316.02 1894.84,-317.75 1889,-319 1769.05,-344.68 1735.67,-320.56 1613,-321 1302.33,-322.13 1223.6,-344.8 914,-319 868.34,-315.2 817.42,-306.82 778.2,-299.46"/>
<polygon fill="#666666" stroke="#666666" points="778.71,-295.99 768.23,-297.57 777.4,-302.87 778.71,-295.99"/>
<text text-anchor="middle" x="1517.5" y="-328.4" font-family="Noto Sans SC" font-size="12.00">4. 返回任务状态</text>
</g>
<!-- Cache&#45;&gt;API -->
<g id="edge18" class="edge">
<title>Cache&#45;&gt;API</title>
<path fill="none" stroke="#666666" d="M1906.69,-290.21C1900.72,-290.54 1894.74,-290.81 1889,-291 1455.91,-305.42 1347.3,-296.38 914,-291 868.61,-290.44 817.49,-289.16 778.1,-288.04"/>
<polygon fill="#666666" stroke="#666666" points="778.18,-284.54 768.09,-287.75 777.98,-291.54 778.18,-284.54"/>
<text text-anchor="middle" x="1517.5" y="-302.4" font-family="Noto Sans SC" font-size="12.00">17. 返回任务状态/结果</text>
</g>
<!-- Worker -->
<g id="node5" class="node">
<title>Worker</title>
<path fill="#ffcc99" stroke="#333333" d="M1721,-146.5C1721,-146.5 1643,-146.5 1643,-146.5 1637,-146.5 1631,-140.5 1631,-134.5 1631,-134.5 1631,-99.5 1631,-99.5 1631,-93.5 1637,-87.5 1643,-87.5 1643,-87.5 1721,-87.5 1721,-87.5 1727,-87.5 1733,-93.5 1733,-99.5 1733,-99.5 1733,-134.5 1733,-134.5 1733,-140.5 1727,-146.5 1721,-146.5"/>
<text text-anchor="middle" x="1682" y="-113.3" font-family="Noto Sans SC" font-size="14.00">工作线程</text>
</g>
<!-- Queue&#45;&gt;Worker -->
<g id="edge9" class="edge">
<title>Queue&#45;&gt;Worker</title>
<path fill="none" stroke="#666666" d="M1268.43,-136.6C1354.39,-132.52 1528.89,-124.23 1620.98,-119.85"/>
<polygon fill="#666666" stroke="#666666" points="1621.16,-123.35 1630.98,-119.38 1620.83,-116.36 1621.16,-123.35"/>
<text text-anchor="middle" x="1517.5" y="-132.4" font-family="Noto Sans SC" font-size="12.00">8. 获取任务</text>
</g>
<!-- Worker&#45;&gt;Cache -->
<g id="edge15" class="edge">
<title>Worker&#45;&gt;Cache</title>
<path fill="none" stroke="#666666" d="M1733.34,-142.26C1739.21,-144.74 1745.19,-147.05 1751,-149 1810.42,-168.92 1836.77,-143.37 1889,-178 1907.23,-190.09 1922.32,-208.26 1934.07,-226.26"/>
<polygon fill="#666666" stroke="#666666" points="1931.3,-228.43 1939.57,-235.06 1937.24,-224.72 1931.3,-228.43"/>
<text text-anchor="middle" x="1820" y="-194.4" font-family="Noto Sans SC" font-size="12.00">14. 更新任务状态和结果</text>
<text text-anchor="middle" x="1820" y="-181.4" font-family="Noto Sans SC" font-size="12.00">(status=completed)</text>
</g>
<!-- Worker&#45;&gt;Worker -->
<g id="edge12" class="edge">
<title>Worker&#45;&gt;Worker</title>
<path fill="none" stroke="#666666" stroke-dasharray="5,2" d="M1656.12,-146.69C1656.12,-156.58 1664.75,-164.5 1682,-164.5 1693.05,-164.5 1700.56,-161.25 1704.53,-156.31"/>
<polygon fill="#666666" stroke="#666666" points="1707.9,-157.28 1707.88,-146.69 1701.29,-154.99 1707.9,-157.28"/>
<text text-anchor="middle" x="1682" y="-167.9" font-family="Noto Sans SC" font-size="12.00">11. 构建提示</text>
</g>
<!-- OCR -->
<g id="node6" class="node">
<title>OCR</title>
<polygon fill="#f2e6ff" stroke="#333333" points="2019,-174 1911,-174 1911,-170 1907,-170 1907,-166 1911,-166 1911,-108 1907,-108 1907,-104 1911,-104 1911,-100 2019,-100 2019,-174"/>
<polyline fill="none" stroke="#333333" points="1911,-170 1915,-170 1915,-166 1911,-166 "/>
<polyline fill="none" stroke="#333333" points="1911,-108 1915,-108 1915,-104 1911,-104 "/>
<text text-anchor="middle" x="1965" y="-140.8" font-family="Noto Sans SC" font-size="14.00">OCR 服务</text>
<text text-anchor="middle" x="1965" y="-125.8" font-family="Noto Sans SC" font-size="14.00">(CnOCR)</text>
</g>
<!-- Worker&#45;&gt;OCR -->
<g id="edge10" class="edge">
<title>Worker&#45;&gt;OCR</title>
<path fill="none" stroke="#666666" d="M1733.24,-120.58C1780.05,-123.91 1850.06,-128.89 1900.68,-132.49"/>
<polygon fill="#666666" stroke="#666666" points="1900.63,-136 1910.85,-133.22 1901.13,-129.02 1900.63,-136"/>
<text text-anchor="middle" x="1820" y="-135.4" font-family="Noto Sans SC" font-size="12.00">9. 发送图像进行OCR处理</text>
</g>
<!-- LLM -->
<g id="node7" class="node">
<title>LLM</title>
<polygon fill="#e6ccff" stroke="#333333" points="2017.5,-74 1912.5,-74 1912.5,-70 1908.5,-70 1908.5,-66 1912.5,-66 1912.5,-8 1908.5,-8 1908.5,-4 1912.5,-4 1912.5,0 2017.5,0 2017.5,-74"/>
<polyline fill="none" stroke="#333333" points="1912.5,-70 1916.5,-70 1916.5,-66 1912.5,-66 "/>
<polyline fill="none" stroke="#333333" points="1912.5,-8 1916.5,-8 1916.5,-4 1912.5,-4 "/>
<text text-anchor="middle" x="1965" y="-40.8" font-family="Noto Sans SC" font-size="14.00">LLM 服务</text>
<text text-anchor="middle" x="1965" y="-25.8" font-family="Noto Sans SC" font-size="14.00">(智谱 AI)</text>
</g>
<!-- Worker&#45;&gt;LLM -->
<g id="edge13" class="edge">
<title>Worker&#45;&gt;LLM</title>
<path fill="none" stroke="#666666" d="M1733.32,-90.98C1739.2,-88.42 1745.17,-86.02 1751,-84 1800.67,-66.74 1859.13,-54.37 1902.23,-46.67"/>
<polygon fill="#666666" stroke="#666666" points="1903.04,-50.08 1912.28,-44.91 1901.83,-43.19 1903.04,-50.08"/>
<text text-anchor="middle" x="1820" y="-87.4" font-family="Noto Sans SC" font-size="12.00">12. 发送提示到LLM</text>
</g>
<!-- OCR&#45;&gt;Worker -->
<g id="edge11" class="edge">
<title>OCR&#45;&gt;Worker</title>
<path fill="none" stroke="#666666" d="M1910.72,-112.04C1903.55,-109.55 1896.19,-107.43 1889,-106 1840.48,-96.37 1784.36,-100.33 1742.95,-106.02"/>
<polygon fill="#666666" stroke="#666666" points="1742.42,-102.56 1733.03,-107.46 1743.42,-109.49 1742.42,-102.56"/>
<text text-anchor="middle" x="1820" y="-109.4" font-family="Noto Sans SC" font-size="12.00">10. 返回识别文本</text>
</g>
<!-- LLM&#45;&gt;Worker -->
<g id="edge14" class="edge">
<title>LLM&#45;&gt;Worker</title>
<path fill="none" stroke="#666666" d="M1912.22,-23.57C1867.32,-14.74 1801.74,-8.79 1751,-33 1730.96,-42.56 1714.91,-61.24 1703.45,-78.56"/>
<polygon fill="#666666" stroke="#666666" points="1700.23,-77.11 1697.88,-87.44 1706.16,-80.83 1700.23,-77.11"/>
<text text-anchor="middle" x="1820" y="-36.4" font-family="Noto Sans SC" font-size="12.00">13. 返回处理结果</text>
</g>
<!-- note1 -->
<g id="node8" class="node">
<title>note1</title>
<polygon fill="#ffffcc" stroke="#333333" points="299,-522 20,-522 20,-448 305,-448 305,-516 299,-522"/>
<polyline fill="none" stroke="#333333" points="299,-522 299,-516 "/>
<polyline fill="none" stroke="#333333" points="305,-516 299,-516 "/>
<text text-anchor="middle" x="162.5" y="-488.8" font-family="Noto Sans SC" font-size="14.00">异步处理: 步骤8&#45;14在后台异步执行，</text>
<text text-anchor="middle" x="162.5" y="-473.8" font-family="Noto Sans SC" font-size="14.00">客户端可以随时轮询获取处理状态</text>
</g>
<!-- note2 -->
<g id="node9" class="node">
<title>note2</title>
<polygon fill="#ffffcc" stroke="#333333" points="890,-522 527,-522 527,-448 896,-448 896,-516 890,-522"/>
<polyline fill="none" stroke="#333333" points="890,-522 890,-516 "/>
<polyline fill="none" stroke="#333333" points="896,-516 890,-516 "/>
<text text-anchor="middle" x="711.5" y="-488.8" font-family="Noto Sans SC" font-size="14.00">并发处理: 多个工作线程可以同时处理不同任务，</text>
<text text-anchor="middle" x="711.5" y="-473.8" font-family="Noto Sans SC" font-size="14.00">OCR处理使用ThreadPoolExecutor并行处理多图像</text>
</g>
<!-- note1&#45;&gt;note2 -->
<!-- note3 -->
<g id="node10" class="node">
<title>note3</title>
<polygon fill="#ffffcc" stroke="#333333" points="1396,-522 1032,-522 1032,-448 1402,-448 1402,-516 1396,-522"/>
<polyline fill="none" stroke="#333333" points="1396,-522 1396,-516 "/>
<polyline fill="none" stroke="#333333" points="1402,-516 1396,-516 "/>
<text text-anchor="middle" x="1217" y="-488.8" font-family="Noto Sans SC" font-size="14.00">缓存机制: 相同任务(相同client_id+sha256+type)</text>
<text text-anchor="middle" x="1217" y="-473.8" font-family="Noto Sans SC" font-size="14.00">不会重复处理，直接返回缓存结果</text>
</g>
<!-- note2&#45;&gt;note3 -->
<!-- legend_client -->
<g id="node11" class="node">
<title>legend_client</title>
<ellipse fill="#e6f2ff" stroke="#333333" cx="162.5" cy="-614" rx="72.25" ry="41.94"/>
<text text-anchor="middle" x="162.5" y="-610.3" font-family="Noto Sans SC" font-size="14.00">外部系统</text>
</g>
<!-- legend_module -->
<g id="node12" class="node">
<title>legend_module</title>
<path fill="#b3e0ff" stroke="#333333" d="M750.5,-643.5C750.5,-643.5 672.5,-643.5 672.5,-643.5 666.5,-643.5 660.5,-637.5 660.5,-631.5 660.5,-631.5 660.5,-596.5 660.5,-596.5 660.5,-590.5 666.5,-584.5 672.5,-584.5 672.5,-584.5 750.5,-584.5 750.5,-584.5 756.5,-584.5 762.5,-590.5 762.5,-596.5 762.5,-596.5 762.5,-631.5 762.5,-631.5 762.5,-637.5 756.5,-643.5 750.5,-643.5"/>
<text text-anchor="middle" x="711.5" y="-610.3" font-family="Noto Sans SC" font-size="14.00">内部组件</text>
</g>
<!-- legend_client&#45;&gt;legend_module -->
<!-- legend_service -->
<g id="node13" class="node">
<title>legend_service</title>
<polygon fill="#f2e6ff" stroke="#333333" points="1268,-643.5 1166,-643.5 1166,-639.5 1162,-639.5 1162,-635.5 1166,-635.5 1166,-592.5 1162,-592.5 1162,-588.5 1166,-588.5 1166,-584.5 1268,-584.5 1268,-643.5"/>
<polyline fill="none" stroke="#333333" points="1166,-639.5 1170,-639.5 1170,-635.5 1166,-635.5 "/>
<polyline fill="none" stroke="#333333" points="1166,-592.5 1170,-592.5 1170,-588.5 1166,-588.5 "/>
<text text-anchor="middle" x="1217" y="-610.3" font-family="Noto Sans SC" font-size="14.00">外部服务</text>
</g>
<!-- legend_module&#45;&gt;legend_service -->
<!-- legend_data -->
<g id="node14" class="node">
<title>legend_data</title>
<path fill="#b3ffb3" stroke="#333333" d="M1733,-647.24C1733,-651.31 1710.14,-654.63 1682,-654.63 1653.86,-654.63 1631,-651.31 1631,-647.24 1631,-647.24 1631,-580.76 1631,-580.76 1631,-576.69 1653.86,-573.37 1682,-573.37 1710.14,-573.37 1733,-576.69 1733,-580.76 1733,-580.76 1733,-647.24 1733,-647.24"/>
<path fill="none" stroke="#333333" d="M1733,-647.24C1733,-643.16 1710.14,-639.85 1682,-639.85 1653.86,-639.85 1631,-643.16 1631,-647.24"/>
<text text-anchor="middle" x="1682" y="-610.3" font-family="Noto Sans SC" font-size="14.00">数据存储</text>
</g>
<!-- legend_service&#45;&gt;legend_data -->
<!-- legend_internal -->
<g id="node15" class="node">
<title>legend_internal</title>
<polygon fill="none" stroke="#333333" stroke-dasharray="5,2" points="2016,-643.5 1914,-643.5 1914,-584.5 2016,-584.5 2016,-643.5"/>
<text text-anchor="middle" x="1965" y="-610.3" font-family="Noto Sans SC" font-size="14.00">内部处理</text>
</g>
<!-- legend_data&#45;&gt;legend_internal -->
</g>
</svg>
