<?xml version="1.0" encoding="UTF-8" standalone="no"?>
<!DOCTYPE svg PUBLIC "-//W3C//DTD SVG 1.1//EN"
 "http://www.w3.org/Graphics/SVG/1.1/DTD/svg11.dtd">
<!-- Generated by graphviz version 2.43.0 (0)
 -->
<!-- Title: DocuSnap_Backend_Deployment Pages: 1 -->
<svg width="2341pt" height="1165pt"
 viewBox="36.00 36.00 2305.00 1128.77" xmlns="http://www.w3.org/2000/svg" xmlns:xlink="http://www.w3.org/1999/xlink">
<g id="graph0" class="graph" transform="scale(1 1) rotate(0) translate(40 1124.77)">
<title>DocuSnap_Backend_Deployment</title>
<polygon fill="white" stroke="transparent" points="-4,4 -4,-1088.77 2265,-1088.77 2265,4 -4,4"/>
<text text-anchor="middle" x="1130.5" y="-1067.97" font-family="Noto Sans SC" font-size="16.00">DocuSnap&#45;Backend 部署架构图</text>
<g id="clust1" class="cluster">
<title>cluster_client_layer</title>
<path fill="#f9f9f9" stroke="black" d="M628,-888.12C628,-888.12 995,-888.12 995,-888.12 1001,-888.12 1007,-894.12 1007,-900.12 1007,-900.12 1007,-1038.77 1007,-1038.77 1007,-1044.77 1001,-1050.77 995,-1050.77 995,-1050.77 628,-1050.77 628,-1050.77 622,-1050.77 616,-1044.77 616,-1038.77 616,-1038.77 616,-900.12 616,-900.12 616,-894.12 622,-888.12 628,-888.12"/>
<text text-anchor="middle" x="811.5" y="-1033.97" font-family="Noto Sans SC" font-size="16.00">客户端层</text>
</g>
<g id="clust2" class="cluster">
<title>cluster_load_balancer</title>
<path fill="#e6f7ff" stroke="black" d="M714,-688.28C714,-688.28 904,-688.28 904,-688.28 910,-688.28 916,-694.28 916,-700.28 916,-700.28 916,-847.12 916,-847.12 916,-853.12 910,-859.12 904,-859.12 904,-859.12 714,-859.12 714,-859.12 708,-859.12 702,-853.12 702,-847.12 702,-847.12 702,-700.28 702,-700.28 702,-694.28 708,-688.28 714,-688.28"/>
<text text-anchor="middle" x="809" y="-842.32" font-family="Noto Sans SC" font-size="16.00">负载均衡层</text>
</g>
<g id="clust3" class="cluster">
<title>cluster_app_servers</title>
<path fill="#f2e6ff" stroke="black" d="M449,-512.28C449,-512.28 1169,-512.28 1169,-512.28 1175,-512.28 1181,-518.28 1181,-524.28 1181,-524.28 1181,-647.28 1181,-647.28 1181,-653.28 1175,-659.28 1169,-659.28 1169,-659.28 449,-659.28 449,-659.28 443,-659.28 437,-653.28 437,-647.28 437,-647.28 437,-524.28 437,-524.28 437,-518.28 443,-512.28 449,-512.28"/>
<text text-anchor="middle" x="809" y="-642.48" font-family="Noto Sans SC" font-size="16.00">应用服务器层</text>
</g>
<g id="clust4" class="cluster">
<title>cluster_data_storage</title>
<path fill="#e6ffe6" stroke="black" d="M20,-295.9C20,-295.9 330,-295.9 330,-295.9 336,-295.9 342,-301.9 342,-307.9 342,-307.9 342,-435.65 342,-435.65 342,-441.65 336,-447.65 330,-447.65 330,-447.65 20,-447.65 20,-447.65 14,-447.65 8,-441.65 8,-435.65 8,-435.65 8,-307.9 8,-307.9 8,-301.9 14,-295.9 20,-295.9"/>
<text text-anchor="middle" x="175" y="-430.85" font-family="Noto Sans SC" font-size="16.00">数据存储层</text>
</g>
<g id="clust5" class="cluster">
<title>cluster_external_services</title>
<path fill="#fff0e6" stroke="black" d="M423,-279.84C423,-279.84 1029,-279.84 1029,-279.84 1035,-279.84 1041,-285.84 1041,-291.84 1041,-291.84 1041,-471.28 1041,-471.28 1041,-477.28 1035,-483.28 1029,-483.28 1029,-483.28 423,-483.28 423,-483.28 417,-483.28 411,-477.28 411,-471.28 411,-471.28 411,-291.84 411,-291.84 411,-285.84 417,-279.84 423,-279.84"/>
<text text-anchor="middle" x="726" y="-466.48" font-family="Noto Sans SC" font-size="16.00">外部服务层</text>
</g>
<g id="clust6" class="cluster">
<title>cluster_ocr_servers</title>
<path fill="#ffe6cc" stroke="black" d="M439,-302.28C439,-302.28 789,-302.28 789,-302.28 795,-302.28 801,-308.28 801,-314.28 801,-314.28 801,-429.28 801,-429.28 801,-435.28 795,-441.28 789,-441.28 789,-441.28 439,-441.28 439,-441.28 433,-441.28 427,-435.28 427,-429.28 427,-429.28 427,-314.28 427,-314.28 427,-308.28 433,-302.28 439,-302.28"/>
<text text-anchor="middle" x="614" y="-424.48" font-family="Noto Sans SC" font-size="16.00">OCR 服务集群</text>
</g>
<g id="clust7" class="cluster">
<title>cluster_monitoring</title>
<path fill="#f0f0f0" stroke="black" d="M971,-126.84C971,-126.84 1327,-126.84 1327,-126.84 1333,-126.84 1339,-132.84 1339,-138.84 1339,-138.84 1339,-238.84 1339,-238.84 1339,-244.84 1333,-250.84 1327,-250.84 1327,-250.84 971,-250.84 971,-250.84 965,-250.84 959,-244.84 959,-238.84 959,-238.84 959,-138.84 959,-138.84 959,-132.84 965,-126.84 971,-126.84"/>
<text text-anchor="middle" x="1149" y="-234.04" font-family="Noto Sans SC" font-size="16.00">监控和日志层</text>
</g>
<g id="clust8" class="cluster">
<title>cluster_tech_stack</title>
<path fill="#ffffee" stroke="black" d="M1585,-134.34C1585,-134.34 2055,-134.34 2055,-134.34 2061,-134.34 2067,-140.34 2067,-146.34 2067,-146.34 2067,-1011.94 2067,-1011.94 2067,-1017.94 2061,-1023.94 2055,-1023.94 2055,-1023.94 1585,-1023.94 1585,-1023.94 1579,-1023.94 1573,-1017.94 1573,-1011.94 1573,-1011.94 1573,-146.34 1573,-146.34 1573,-140.34 1579,-134.34 1585,-134.34"/>
<text text-anchor="middle" x="1820" y="-1007.14" font-family="Noto Sans SC" font-size="16.00">技术栈说明</text>
</g>
<g id="clust9" class="cluster">
<title>cluster_legend</title>
<path fill="white" stroke="black" d="M2083,-8C2083,-8 2241,-8 2241,-8 2247,-8 2253,-14 2253,-20 2253,-20 2253,-1020.16 2253,-1020.16 2253,-1026.16 2247,-1032.16 2241,-1032.16 2241,-1032.16 2083,-1032.16 2083,-1032.16 2077,-1032.16 2071,-1026.16 2071,-1020.16 2071,-1020.16 2071,-20 2071,-20 2071,-14 2077,-8 2083,-8"/>
<text text-anchor="middle" x="2162" y="-1015.36" font-family="Noto Sans SC" font-size="16.00">图例</text>
</g>
<!-- MobileApp -->
<g id="node1" class="node">
<title>MobileApp</title>
<ellipse fill="#e6f2ff" stroke="#333333" cx="730" cy="-956.44" rx="97.66" ry="52.15"/>
<text text-anchor="middle" x="730" y="-960.24" font-family="Noto Sans SC" font-size="14.00">移动应用</text>
<text text-anchor="middle" x="730" y="-945.24" font-family="Noto Sans SC" font-size="14.00">(iOS/Android)</text>
</g>
<!-- LoadBalancer -->
<g id="node3" class="node">
<title>LoadBalancer</title>
<path fill="#b3e0ff" stroke="#333333" d="M896.51,-770.13C896.51,-770.13 863.88,-811.61 863.88,-811.61 860.17,-816.32 850.46,-821.04 844.46,-821.04 844.46,-821.04 773.54,-821.04 773.54,-821.04 767.54,-821.04 757.83,-816.32 754.12,-811.61 754.12,-811.61 721.49,-770.13 721.49,-770.13 717.78,-765.41 717.78,-755.98 721.49,-751.27 721.49,-751.27 754.12,-709.79 754.12,-709.79 757.83,-705.07 767.54,-700.36 773.54,-700.36 773.54,-700.36 844.46,-700.36 844.46,-700.36 850.46,-700.36 860.17,-705.07 863.88,-709.79 863.88,-709.79 896.51,-751.27 896.51,-751.27 900.22,-755.98 900.22,-765.41 896.51,-770.13"/>
<text text-anchor="middle" x="809" y="-764.5" font-family="Noto Sans SC" font-size="14.00">负载均衡器</text>
<text text-anchor="middle" x="809" y="-749.5" font-family="Noto Sans SC" font-size="14.00">(Nginx)</text>
</g>
<!-- MobileApp&#45;&gt;LoadBalancer -->
<g id="edge1" class="edge">
<title>MobileApp&#45;&gt;LoadBalancer</title>
<path fill="none" stroke="#666666" d="M750.55,-905.05C759.83,-882.28 770.95,-855.02 780.98,-830.42"/>
<polygon fill="#666666" stroke="#666666" points="784.23,-831.72 784.76,-821.14 777.75,-829.07 784.23,-831.72"/>
<text text-anchor="middle" x="783.5" y="-870.52" font-family="Noto Sans SC" font-size="12.00">HTTPS</text>
</g>
<!-- WebApp -->
<g id="node2" class="node">
<title>WebApp</title>
<ellipse fill="#e6f2ff" stroke="#333333" cx="918" cy="-956.44" rx="72.66" ry="52.15"/>
<text text-anchor="middle" x="918" y="-960.24" font-family="Noto Sans SC" font-size="14.00">Web应用</text>
<text text-anchor="middle" x="918" y="-945.24" font-family="Noto Sans SC" font-size="14.00">(浏览器)</text>
</g>
<!-- WebApp&#45;&gt;LoadBalancer -->
<g id="edge2" class="edge">
<title>WebApp&#45;&gt;LoadBalancer</title>
<path fill="none" stroke="#666666" d="M891.06,-907.55C877.92,-884.2 861.88,-855.69 847.48,-830.09"/>
<polygon fill="#666666" stroke="#666666" points="850.41,-828.17 842.46,-821.17 844.31,-831.6 850.41,-828.17"/>
<text text-anchor="middle" x="892.5" y="-870.52" font-family="Noto Sans SC" font-size="12.00">HTTPS</text>
</g>
<!-- Backend1 -->
<g id="node4" class="node">
<title>Backend1</title>
<path fill="#e6ccff" stroke="#333333" d="M909.5,-617.28C909.5,-617.28 708.5,-617.28 708.5,-617.28 702.5,-617.28 696.5,-611.28 696.5,-605.28 696.5,-605.28 696.5,-540.28 696.5,-540.28 696.5,-534.28 702.5,-528.28 708.5,-528.28 708.5,-528.28 909.5,-528.28 909.5,-528.28 915.5,-528.28 921.5,-534.28 921.5,-540.28 921.5,-540.28 921.5,-605.28 921.5,-605.28 921.5,-611.28 915.5,-617.28 909.5,-617.28"/>
<text text-anchor="middle" x="809" y="-584.08" font-family="Noto Sans SC" font-size="14.00">DocuSnap&#45;Backend 实例 1</text>
<text text-anchor="middle" x="809" y="-569.08" font-family="Noto Sans SC" font-size="14.00">(Flask + Gunicorn)</text>
<text text-anchor="middle" x="809" y="-554.08" font-family="Noto Sans SC" font-size="14.00">Python 3.9+</text>
</g>
<!-- LoadBalancer&#45;&gt;Backend1 -->
<g id="edge3" class="edge">
<title>LoadBalancer&#45;&gt;Backend1</title>
<path fill="none" stroke="#666666" d="M809,-700.1C809,-676.8 809,-650.27 809,-627.56"/>
<polygon fill="#666666" stroke="#666666" points="812.5,-627.42 809,-617.42 805.5,-627.42 812.5,-627.42"/>
<text text-anchor="middle" x="824.5" y="-670.68" font-family="Noto Sans SC" font-size="12.00">HTTP</text>
</g>
<!-- Backend2 -->
<g id="node5" class="node">
<title>Backend2</title>
<path fill="#e6ccff" stroke="#333333" d="M1152.5,-617.28C1152.5,-617.28 951.5,-617.28 951.5,-617.28 945.5,-617.28 939.5,-611.28 939.5,-605.28 939.5,-605.28 939.5,-540.28 939.5,-540.28 939.5,-534.28 945.5,-528.28 951.5,-528.28 951.5,-528.28 1152.5,-528.28 1152.5,-528.28 1158.5,-528.28 1164.5,-534.28 1164.5,-540.28 1164.5,-540.28 1164.5,-605.28 1164.5,-605.28 1164.5,-611.28 1158.5,-617.28 1152.5,-617.28"/>
<text text-anchor="middle" x="1052" y="-584.08" font-family="Noto Sans SC" font-size="14.00">DocuSnap&#45;Backend 实例 2</text>
<text text-anchor="middle" x="1052" y="-569.08" font-family="Noto Sans SC" font-size="14.00">(Flask + Gunicorn)</text>
<text text-anchor="middle" x="1052" y="-554.08" font-family="Noto Sans SC" font-size="14.00">Python 3.9+</text>
</g>
<!-- LoadBalancer&#45;&gt;Backend2 -->
<g id="edge4" class="edge">
<title>LoadBalancer&#45;&gt;Backend2</title>
<path fill="none" stroke="#666666" d="M867.82,-714.69C903.73,-687.22 949.71,-652.04 986.73,-623.71"/>
<polygon fill="#666666" stroke="#666666" points="989.16,-626.26 994.97,-617.41 984.91,-620.7 989.16,-626.26"/>
<text text-anchor="middle" x="938.5" y="-670.68" font-family="Noto Sans SC" font-size="12.00">HTTP</text>
</g>
<!-- Backend3 -->
<g id="node6" class="node">
<title>Backend3</title>
<path fill="#e6ccff" stroke="#333333" d="M666.5,-617.28C666.5,-617.28 465.5,-617.28 465.5,-617.28 459.5,-617.28 453.5,-611.28 453.5,-605.28 453.5,-605.28 453.5,-540.28 453.5,-540.28 453.5,-534.28 459.5,-528.28 465.5,-528.28 465.5,-528.28 666.5,-528.28 666.5,-528.28 672.5,-528.28 678.5,-534.28 678.5,-540.28 678.5,-540.28 678.5,-605.28 678.5,-605.28 678.5,-611.28 672.5,-617.28 666.5,-617.28"/>
<text text-anchor="middle" x="566" y="-584.08" font-family="Noto Sans SC" font-size="14.00">DocuSnap&#45;Backend 实例 3</text>
<text text-anchor="middle" x="566" y="-569.08" font-family="Noto Sans SC" font-size="14.00">(Flask + Gunicorn)</text>
<text text-anchor="middle" x="566" y="-554.08" font-family="Noto Sans SC" font-size="14.00">Python 3.9+</text>
</g>
<!-- LoadBalancer&#45;&gt;Backend3 -->
<g id="edge5" class="edge">
<title>LoadBalancer&#45;&gt;Backend3</title>
<path fill="none" stroke="#666666" d="M750.18,-714.69C714.27,-687.22 668.29,-652.04 631.27,-623.71"/>
<polygon fill="#666666" stroke="#666666" points="633.09,-620.7 623.03,-617.41 628.84,-626.26 633.09,-620.7"/>
<text text-anchor="middle" x="717.5" y="-670.68" font-family="Noto Sans SC" font-size="12.00">HTTP</text>
</g>
<!-- PrimaryDB -->
<g id="node7" class="node">
<title>PrimaryDB</title>
<path fill="#b3ffb3" stroke="#333333" d="M330,-400.3C330,-405.39 293.69,-409.53 249,-409.53 204.31,-409.53 168,-405.39 168,-400.3 168,-400.3 168,-317.25 168,-317.25 168,-312.16 204.31,-308.03 249,-308.03 293.69,-308.03 330,-312.16 330,-317.25 330,-317.25 330,-400.3 330,-400.3"/>
<path fill="none" stroke="#333333" d="M330,-400.3C330,-395.21 293.69,-391.07 249,-391.07 204.31,-391.07 168,-395.21 168,-400.3"/>
<text text-anchor="middle" x="249" y="-362.58" font-family="Noto Sans SC" font-size="14.00">主缓存数据库</text>
<text text-anchor="middle" x="249" y="-347.58" font-family="Noto Sans SC" font-size="14.00">(SQLite/文件系统)</text>
</g>
<!-- Backend1&#45;&gt;PrimaryDB -->
<g id="edge6" class="edge">
<title>Backend1&#45;&gt;PrimaryDB</title>
<path fill="none" stroke="#666666" d="M733.12,-528.26C718.56,-521.72 703.13,-515.94 688,-512.28 676.09,-509.39 255.58,-513.02 247,-504.28 225.69,-482.58 225.01,-449.03 230.2,-419.73"/>
<polygon fill="#666666" stroke="#666666" points="233.7,-420.06 232.26,-409.56 226.84,-418.67 233.7,-420.06"/>
<text text-anchor="middle" x="279" y="-494.68" font-family="Noto Sans SC" font-size="12.00">SQLite连接</text>
</g>
<!-- SharedFS -->
<g id="node8" class="node">
<title>SharedFS</title>
<path fill="#b3ffb3" stroke="#333333" d="M150,-400.3C150,-405.39 120.87,-409.53 85,-409.53 49.13,-409.53 20,-405.39 20,-400.3 20,-400.3 20,-317.25 20,-317.25 20,-312.16 49.13,-308.03 85,-308.03 120.87,-308.03 150,-312.16 150,-317.25 150,-317.25 150,-400.3 150,-400.3"/>
<path fill="none" stroke="#333333" d="M150,-400.3C150,-395.21 120.87,-391.07 85,-391.07 49.13,-391.07 20,-395.21 20,-400.3"/>
<text text-anchor="middle" x="85" y="-362.58" font-family="Noto Sans SC" font-size="14.00">共享文件系统</text>
<text text-anchor="middle" x="85" y="-347.58" font-family="Noto Sans SC" font-size="14.00">(NFS/EFS)</text>
</g>
<!-- Backend1&#45;&gt;SharedFS -->
<g id="edge9" class="edge">
<title>Backend1&#45;&gt;SharedFS</title>
<path fill="none" stroke="#666666" d="M733.14,-528.2C718.58,-521.67 703.14,-515.91 688,-512.28 672.25,-508.5 117.14,-515 105,-504.28 81.74,-483.73 76.16,-449.74 76.67,-419.89"/>
<polygon fill="#666666" stroke="#666666" points="80.19,-419.66 77.09,-409.53 73.19,-419.38 80.19,-419.66"/>
<text text-anchor="middle" x="129.5" y="-494.68" font-family="Noto Sans SC" font-size="12.00">文件读写</text>
</g>
<!-- OCRServer1 -->
<g id="node9" class="node">
<title>OCRServer1</title>
<polygon fill="#ffcc99" stroke="#333333" points="605,-403.28 439,-403.28 439,-399.28 435,-399.28 435,-395.28 439,-395.28 439,-322.28 435,-322.28 435,-318.28 439,-318.28 439,-314.28 605,-314.28 605,-403.28"/>
<polyline fill="none" stroke="#333333" points="439,-399.28 443,-399.28 443,-395.28 439,-395.28 "/>
<polyline fill="none" stroke="#333333" points="439,-322.28 443,-322.28 443,-318.28 439,-318.28 "/>
<text text-anchor="middle" x="522" y="-370.08" font-family="Noto Sans SC" font-size="14.00">OCR 服务器 1</text>
<text text-anchor="middle" x="522" y="-355.08" font-family="Noto Sans SC" font-size="14.00">(CnOCR)</text>
<text text-anchor="middle" x="522" y="-340.08" font-family="Noto Sans SC" font-size="14.00">Python + PyTorch</text>
</g>
<!-- Backend1&#45;&gt;OCRServer1 -->
<g id="edge12" class="edge">
<title>Backend1&#45;&gt;OCRServer1</title>
<path fill="none" stroke="#666666" d="M732.4,-528.22C718.04,-521.78 702.86,-516.04 688,-512.28 677.01,-509.49 491.86,-512.45 484,-504.28 460.52,-479.86 470.89,-442.74 486.68,-412.24"/>
<polygon fill="#666666" stroke="#666666" points="489.77,-413.88 491.49,-403.42 483.63,-410.53 489.77,-413.88"/>
<text text-anchor="middle" x="511.5" y="-494.68" font-family="Noto Sans SC" font-size="12.00">HTTP API</text>
</g>
<!-- OCRServer2 -->
<g id="node10" class="node">
<title>OCRServer2</title>
<polygon fill="#ffcc99" stroke="#333333" points="789,-403.28 623,-403.28 623,-399.28 619,-399.28 619,-395.28 623,-395.28 623,-322.28 619,-322.28 619,-318.28 623,-318.28 623,-314.28 789,-314.28 789,-403.28"/>
<polyline fill="none" stroke="#333333" points="623,-399.28 627,-399.28 627,-395.28 623,-395.28 "/>
<polyline fill="none" stroke="#333333" points="623,-322.28 627,-322.28 627,-318.28 623,-318.28 "/>
<text text-anchor="middle" x="706" y="-370.08" font-family="Noto Sans SC" font-size="14.00">OCR 服务器 2</text>
<text text-anchor="middle" x="706" y="-355.08" font-family="Noto Sans SC" font-size="14.00">(CnOCR)</text>
<text text-anchor="middle" x="706" y="-340.08" font-family="Noto Sans SC" font-size="14.00">Python + PyTorch</text>
</g>
<!-- Backend1&#45;&gt;OCRServer2 -->
<g id="edge13" class="edge">
<title>Backend1&#45;&gt;OCRServer2</title>
<path fill="none" stroke="#666666" d="M745.54,-528.22C738.36,-520.97 731.89,-512.95 727,-504.28 711.59,-476.94 706.18,-442.25 704.69,-413.71"/>
<polygon fill="#666666" stroke="#666666" points="708.18,-413.36 704.31,-403.5 701.18,-413.62 708.18,-413.36"/>
<text text-anchor="middle" x="754.5" y="-494.68" font-family="Noto Sans SC" font-size="12.00">HTTP API</text>
</g>
<!-- LLMService -->
<g id="node11" class="node">
<title>LLMService</title>
<ellipse fill="#ffd9e6" stroke="#333333" stroke-dasharray="5,2" cx="919" cy="-358.78" rx="106.13" ry="62.87"/>
<text text-anchor="middle" x="919" y="-370.08" font-family="Noto Sans SC" font-size="14.00">智谱 AI 服务</text>
<text text-anchor="middle" x="919" y="-355.08" font-family="Noto Sans SC" font-size="14.00">(外部 API)</text>
<text text-anchor="middle" x="919" y="-340.08" font-family="Noto Sans SC" font-size="14.00">GLM 大语言模型</text>
</g>
<!-- Backend1&#45;&gt;LLMService -->
<g id="edge18" class="edge">
<title>Backend1&#45;&gt;LLMService</title>
<path fill="none" stroke="#666666" d="M899.12,-528.13C923.81,-515.97 944.14,-505.66 945,-504.28 958.76,-482.09 957.35,-454.53 950.7,-429.45"/>
<polygon fill="#666666" stroke="#666666" points="953.99,-428.21 947.8,-419.61 947.27,-430.19 953.99,-428.21"/>
<text text-anchor="middle" x="981" y="-494.68" font-family="Noto Sans SC" font-size="12.00">HTTPS API</text>
</g>
<!-- Monitoring -->
<g id="node12" class="node">
<title>Monitoring</title>
<path fill="#d9d9d9" stroke="#333333" d="M1173,-212.84C1173,-212.84 983,-212.84 983,-212.84 977,-212.84 971,-206.84 971,-200.84 971,-200.84 971,-150.84 971,-150.84 971,-144.84 977,-138.84 983,-138.84 983,-138.84 1173,-138.84 1173,-138.84 1179,-138.84 1185,-144.84 1185,-150.84 1185,-150.84 1185,-200.84 1185,-200.84 1185,-206.84 1179,-212.84 1173,-212.84"/>
<text text-anchor="middle" x="1078" y="-179.64" font-family="Noto Sans SC" font-size="14.00">监控系统</text>
<text text-anchor="middle" x="1078" y="-164.64" font-family="Noto Sans SC" font-size="14.00">(Prometheus + Grafana)</text>
</g>
<!-- Backend1&#45;&gt;Monitoring -->
<g id="edge21" class="edge">
<title>Backend1&#45;&gt;Monitoring</title>
<path fill="none" stroke="#666666" d="M886.26,-528.23C900.74,-521.78 916.03,-516.05 931,-512.28 941.89,-509.53 1125.22,-512.37 1133,-504.28 1137.34,-499.76 1197.75,-396.83 1128,-279.84 1124.33,-273.69 1118.65,-277.29 1114,-271.84 1102.03,-257.83 1093.83,-239.43 1088.32,-222.56"/>
<polygon fill="#666666" stroke="#666666" points="1091.63,-221.4 1085.38,-212.85 1084.93,-223.43 1091.63,-221.4"/>
<text text-anchor="middle" x="1185.5" y="-355.68" font-family="Noto Sans SC" font-size="12.00">指标收集</text>
</g>
<!-- Logging -->
<g id="node13" class="node">
<title>Logging</title>
<path fill="#d9d9d9" stroke="#333333" d="M1314.5,-212.84C1314.5,-212.84 1215.5,-212.84 1215.5,-212.84 1209.5,-212.84 1203.5,-206.84 1203.5,-200.84 1203.5,-200.84 1203.5,-150.84 1203.5,-150.84 1203.5,-144.84 1209.5,-138.84 1215.5,-138.84 1215.5,-138.84 1314.5,-138.84 1314.5,-138.84 1320.5,-138.84 1326.5,-144.84 1326.5,-150.84 1326.5,-150.84 1326.5,-200.84 1326.5,-200.84 1326.5,-206.84 1320.5,-212.84 1314.5,-212.84"/>
<text text-anchor="middle" x="1265" y="-179.64" font-family="Noto Sans SC" font-size="14.00">日志系统</text>
<text text-anchor="middle" x="1265" y="-164.64" font-family="Noto Sans SC" font-size="14.00">(ELK Stack)</text>
</g>
<!-- Backend1&#45;&gt;Logging -->
<g id="edge24" class="edge">
<title>Backend1&#45;&gt;Logging</title>
<path fill="none" stroke="#666666" d="M885.88,-528.18C900.46,-521.69 915.89,-515.95 931,-512.28 1004.43,-494.41 1197.94,-523.61 1271,-504.28 1290.03,-499.24 1299.91,-500.18 1310,-483.28 1358.91,-401.39 1318.43,-285.85 1288.96,-222.61"/>
<polygon fill="#666666" stroke="#666666" points="1291.98,-220.82 1284.52,-213.3 1285.66,-223.83 1291.98,-220.82"/>
<text text-anchor="middle" x="1356.5" y="-355.68" font-family="Noto Sans SC" font-size="12.00">日志收集</text>
</g>
<!-- Backend2&#45;&gt;PrimaryDB -->
<g id="edge7" class="edge">
<title>Backend2&#45;&gt;PrimaryDB</title>
<path fill="none" stroke="#666666" d="M975.79,-528.15C961.32,-521.67 946.01,-515.94 931,-512.28 890.73,-502.45 597.47,-516.95 558,-504.28 548.26,-501.15 548.66,-494.64 539,-491.28 490.19,-474.31 471.67,-500.66 423,-483.28 381.51,-468.46 341.02,-440.76 309.56,-415.34"/>
<polygon fill="#666666" stroke="#666666" points="311.7,-412.58 301.75,-408.94 307.26,-417.99 311.7,-412.58"/>
<text text-anchor="middle" x="590" y="-494.68" font-family="Noto Sans SC" font-size="12.00">SQLite连接</text>
</g>
<!-- Backend2&#45;&gt;SharedFS -->
<g id="edge10" class="edge">
<title>Backend2&#45;&gt;SharedFS</title>
<path fill="none" stroke="#666666" d="M976.14,-528.2C961.58,-521.67 946.14,-515.91 931,-512.28 867.79,-497.12 409.9,-516.21 346,-504.28 329.69,-501.23 327.25,-494.64 311,-491.28 294.44,-487.85 173.49,-492 159,-483.28 134.88,-468.76 117.66,-443.12 105.94,-418.95"/>
<polygon fill="#666666" stroke="#666666" points="109.08,-417.4 101.72,-409.78 102.72,-420.33 109.08,-417.4"/>
<text text-anchor="middle" x="370.5" y="-494.68" font-family="Noto Sans SC" font-size="12.00">文件读写</text>
</g>
<!-- Backend2&#45;&gt;OCRServer1 -->
<g id="edge14" class="edge">
<title>Backend2&#45;&gt;OCRServer1</title>
<path fill="none" stroke="#666666" d="M974.67,-528.2C960.52,-521.84 945.59,-516.15 931,-512.28 875.05,-497.44 855.75,-523.08 801,-504.28 791.32,-500.95 791.7,-494.53 782,-491.28 746.57,-479.38 646.99,-500.84 614,-483.28 584.84,-467.76 562.4,-438.46 546.99,-412.29"/>
<polygon fill="#666666" stroke="#666666" points="550.01,-410.53 542.03,-403.56 543.92,-413.99 550.01,-410.53"/>
<text text-anchor="middle" x="828.5" y="-494.68" font-family="Noto Sans SC" font-size="12.00">HTTP API</text>
</g>
<!-- Backend2&#45;&gt;OCRServer2 -->
<g id="edge15" class="edge">
<title>Backend2&#45;&gt;OCRServer2</title>
<path fill="none" stroke="#666666" d="M1042.33,-528.06C1036.97,-513.99 1028.7,-499.83 1016,-491.28 995.44,-477.42 814.8,-495.09 793,-483.28 764.53,-467.86 743.29,-438.59 728.92,-412.42"/>
<polygon fill="#666666" stroke="#666666" points="731.89,-410.53 724.13,-403.32 725.69,-413.8 731.89,-410.53"/>
<text text-anchor="middle" x="1056.5" y="-494.68" font-family="Noto Sans SC" font-size="12.00">HTTP API</text>
</g>
<!-- Backend2&#45;&gt;LLMService -->
<g id="edge19" class="edge">
<title>Backend2&#45;&gt;LLMService</title>
<path fill="none" stroke="#666666" d="M1107.82,-528.13C1117.18,-515.88 1121.02,-502.77 1111,-491.28 1102.45,-481.47 1064.77,-488.83 1053,-483.28 1022.79,-469.02 994.71,-445.52 972.14,-422.83"/>
<polygon fill="#666666" stroke="#666666" points="974.49,-420.22 965.01,-415.5 969.47,-425.11 974.49,-420.22"/>
<text text-anchor="middle" x="1147" y="-494.68" font-family="Noto Sans SC" font-size="12.00">HTTPS API</text>
</g>
<!-- Backend2&#45;&gt;Monitoring -->
<g id="edge22" class="edge">
<title>Backend2&#45;&gt;Monitoring</title>
<path fill="none" stroke="#666666" d="M1164.86,-559.57C1255.37,-546.92 1371.11,-523.27 1395,-483.28 1441.36,-405.65 1453.96,-348.39 1395,-279.84 1365.71,-245.8 1237.23,-266.12 1195,-250.84 1173.54,-243.08 1151.9,-230.89 1133.17,-218.63"/>
<polygon fill="#666666" stroke="#666666" points="1135.04,-215.67 1124.78,-213.01 1131.14,-221.49 1135.04,-215.67"/>
<text text-anchor="middle" x="1458.5" y="-355.68" font-family="Noto Sans SC" font-size="12.00">指标收集</text>
</g>
<!-- Backend2&#45;&gt;Logging -->
<g id="edge25" class="edge">
<title>Backend2&#45;&gt;Logging</title>
<path fill="none" stroke="#666666" d="M1164.61,-564.85C1279.86,-555.11 1447.51,-532.68 1487,-483.28 1515.23,-447.97 1511.33,-317.95 1487,-279.84 1454.08,-228.29 1387.98,-202.14 1336.42,-189.13"/>
<polygon fill="#666666" stroke="#666666" points="1337.19,-185.72 1326.65,-186.78 1335.55,-192.52 1337.19,-185.72"/>
<text text-anchor="middle" x="1530.5" y="-355.68" font-family="Noto Sans SC" font-size="12.00">日志收集</text>
</g>
<!-- Backend3&#45;&gt;PrimaryDB -->
<g id="edge8" class="edge">
<title>Backend3&#45;&gt;PrimaryDB</title>
<path fill="none" stroke="#666666" d="M453.13,-568.82C346.31,-563.35 196.96,-547.89 160,-504.28 156.26,-499.87 158.31,-496.8 160,-491.28 168.03,-465.1 183.22,-439.45 198.81,-417.84"/>
<polygon fill="#666666" stroke="#666666" points="201.65,-419.89 204.79,-409.77 196.03,-415.72 201.65,-419.89"/>
<text text-anchor="middle" x="192" y="-494.68" font-family="Noto Sans SC" font-size="12.00">SQLite连接</text>
</g>
<!-- Backend3&#45;&gt;SharedFS -->
<g id="edge11" class="edge">
<title>Backend3&#45;&gt;SharedFS</title>
<path fill="none" stroke="#666666" d="M453.44,-565.82C300.98,-556.59 44.47,-536.45 16,-504.28 -6.56,-478.77 8.26,-444.6 29.86,-415.88"/>
<polygon fill="#666666" stroke="#666666" points="32.67,-417.97 36.11,-407.94 27.17,-413.64 32.67,-417.97"/>
<text text-anchor="middle" x="40.5" y="-494.68" font-family="Noto Sans SC" font-size="12.00">文件读写</text>
</g>
<!-- Backend3&#45;&gt;OCRServer1 -->
<g id="edge16" class="edge">
<title>Backend3&#45;&gt;OCRServer1</title>
<path fill="none" stroke="#666666" d="M453.42,-544.3C434.67,-534.69 417.58,-521.74 406,-504.28 384.18,-471.39 409.91,-436.85 442.62,-409.78"/>
<polygon fill="#666666" stroke="#666666" points="444.96,-412.39 450.6,-403.42 440.6,-406.91 444.96,-412.39"/>
<text text-anchor="middle" x="433.5" y="-494.68" font-family="Noto Sans SC" font-size="12.00">HTTP API</text>
</g>
<!-- Backend3&#45;&gt;OCRServer2 -->
<g id="edge17" class="edge">
<title>Backend3&#45;&gt;OCRServer2</title>
<path fill="none" stroke="#666666" d="M607.15,-528.27C613.76,-520.52 620.29,-512.34 626,-504.28 646.47,-475.37 665.81,-440.71 680.35,-412.58"/>
<polygon fill="#666666" stroke="#666666" points="683.65,-413.81 685.09,-403.31 677.42,-410.62 683.65,-413.81"/>
<text text-anchor="middle" x="660.5" y="-494.68" font-family="Noto Sans SC" font-size="12.00">HTTP API</text>
</g>
<!-- Backend3&#45;&gt;LLMService -->
<g id="edge20" class="edge">
<title>Backend3&#45;&gt;LLMService</title>
<path fill="none" stroke="#666666" d="M643.61,-528.17C657.99,-521.77 673.16,-516.07 688,-512.28 706.54,-507.54 844.37,-515.31 860,-504.28 883.95,-487.36 898.2,-458.93 906.66,-431.74"/>
<polygon fill="#666666" stroke="#666666" points="910.12,-432.38 909.53,-421.8 903.39,-430.44 910.12,-432.38"/>
<text text-anchor="middle" x="903" y="-494.68" font-family="Noto Sans SC" font-size="12.00">HTTPS API</text>
</g>
<!-- Backend3&#45;&gt;Monitoring -->
<g id="edge23" class="edge">
<title>Backend3&#45;&gt;Monitoring</title>
<path fill="none" stroke="#666666" d="M642.87,-528.13C657.45,-521.65 672.88,-515.93 688,-512.28 698.8,-509.67 1080.22,-512.21 1088,-504.28 1092.04,-500.15 1090.82,-496.32 1088,-491.28 1084.69,-485.35 1078.31,-489.2 1075,-483.28 1030.9,-404.35 1073.68,-370.25 1075,-279.84 1075.27,-261.3 1075.81,-240.89 1076.36,-223.16"/>
<polygon fill="#666666" stroke="#666666" points="1079.87,-223.17 1076.69,-213.07 1072.87,-222.95 1079.87,-223.17"/>
<text text-anchor="middle" x="1099.5" y="-355.68" font-family="Noto Sans SC" font-size="12.00">指标收集</text>
</g>
<!-- Backend3&#45;&gt;Logging -->
<g id="edge26" class="edge">
<title>Backend3&#45;&gt;Logging</title>
<path fill="none" stroke="#666666" d="M642.53,-528.23C657.2,-521.69 672.76,-515.93 688,-512.28 741.39,-499.5 1129.53,-520.42 1182,-504.28 1285.49,-472.44 1239.01,-378.94 1255,-271.84 1257.35,-256.12 1259.34,-238.85 1260.91,-223.39"/>
<polygon fill="#666666" stroke="#666666" points="1264.44,-223.32 1261.93,-213.03 1257.47,-222.64 1264.44,-223.32"/>
<text text-anchor="middle" x="1277.5" y="-355.68" font-family="Noto Sans SC" font-size="12.00">日志收集</text>
</g>
<!-- OCRServer1&#45;&gt;Monitoring -->
<g id="edge27" class="edge">
<title>OCRServer1&#45;&gt;Monitoring</title>
<path fill="none" stroke="#666666" d="M564.72,-314.16C579.29,-301.42 596.37,-288.59 614,-279.84 724.3,-225.11 863.66,-199.19 960.73,-187.09"/>
<polygon fill="#666666" stroke="#666666" points="961.37,-190.54 970.87,-185.85 960.53,-183.59 961.37,-190.54"/>
<text text-anchor="middle" x="684.5" y="-262.24" font-family="Noto Sans SC" font-size="12.00">指标收集</text>
</g>
<!-- OCRServer1&#45;&gt;Logging -->
<g id="edge29" class="edge">
<title>OCRServer1&#45;&gt;Logging</title>
<path fill="none" stroke="#666666" d="M561.53,-314.17C576.51,-300.6 594.65,-287.27 614,-279.84 641.81,-269.17 852.24,-273.29 882,-271.84 899.35,-271 1178.26,-258.19 1194,-250.84 1208.69,-243.99 1221.91,-232.65 1232.85,-220.88"/>
<polygon fill="#666666" stroke="#666666" points="1235.7,-222.94 1239.71,-213.13 1230.46,-218.3 1235.7,-222.94"/>
<text text-anchor="middle" x="1139.5" y="-262.24" font-family="Noto Sans SC" font-size="12.00">日志收集</text>
</g>
<!-- OCRServer2&#45;&gt;Monitoring -->
<g id="edge28" class="edge">
<title>OCRServer2&#45;&gt;Monitoring</title>
<path fill="none" stroke="#666666" d="M748.1,-314.18C761.59,-301.89 777.16,-289.31 793,-279.84 844.87,-248.85 907.56,-224.93 960.93,-207.98"/>
<polygon fill="#666666" stroke="#666666" points="962.28,-211.23 970.78,-204.9 960.19,-204.55 962.28,-211.23"/>
<text text-anchor="middle" x="853.5" y="-262.24" font-family="Noto Sans SC" font-size="12.00">指标收集</text>
</g>
<!-- OCRServer2&#45;&gt;Logging -->
<g id="edge30" class="edge">
<title>OCRServer2&#45;&gt;Logging</title>
<path fill="none" stroke="#666666" d="M742.96,-314.1C757.08,-300.53 774.32,-287.21 793,-279.84 833.32,-263.95 1143.78,-290.29 1183,-271.84 1205.84,-261.1 1224.8,-240.63 1238.72,-221.43"/>
<polygon fill="#666666" stroke="#666666" points="1241.73,-223.23 1244.56,-213.02 1235.98,-219.23 1241.73,-223.23"/>
<text text-anchor="middle" x="1227.5" y="-262.24" font-family="Noto Sans SC" font-size="12.00">日志收集</text>
</g>
<!-- TechBackend -->
<g id="node14" class="node">
<title>TechBackend</title>
<polygon fill="#ffffcc" stroke="#333333" points="2049.5,-985.94 1584.5,-985.94 1584.5,-926.94 2055.5,-926.94 2055.5,-979.94 2049.5,-985.94"/>
<polyline fill="none" stroke="#333333" points="2049.5,-985.94 2049.5,-979.94 "/>
<polyline fill="none" stroke="#333333" points="2055.5,-979.94 2049.5,-979.94 "/>
<text text-anchor="middle" x="1820" y="-952.74" font-family="Noto Sans SC" font-size="14.00">后端服务器: Python 3.9+, Flask 3.1.1, Gunicorn, cryptography</text>
</g>
<!-- TechOCR -->
<g id="node15" class="node">
<title>TechOCR</title>
<polygon fill="#ffffcc" stroke="#333333" points="2013.5,-790.2 1620.5,-790.2 1620.5,-731.2 2019.5,-731.2 2019.5,-784.2 2013.5,-790.2"/>
<polyline fill="none" stroke="#333333" points="2013.5,-790.2 2013.5,-784.2 "/>
<polyline fill="none" stroke="#333333" points="2019.5,-784.2 2013.5,-784.2 "/>
<text text-anchor="middle" x="1820" y="-757" font-family="Noto Sans SC" font-size="14.00">OCR 服务器: Python, CnOCR, PyTorch, Flask/FastAPI</text>
</g>
<!-- TechBackend&#45;&gt;TechOCR -->
<!-- TechLLM -->
<g id="node16" class="node">
<title>TechLLM</title>
<polygon fill="#ffffcc" stroke="#333333" points="2004.5,-602.28 1629.5,-602.28 1629.5,-543.28 2010.5,-543.28 2010.5,-596.28 2004.5,-602.28"/>
<polyline fill="none" stroke="#333333" points="2004.5,-602.28 2004.5,-596.28 "/>
<polyline fill="none" stroke="#333333" points="2010.5,-596.28 2004.5,-596.28 "/>
<text text-anchor="middle" x="1820" y="-569.08" font-family="Noto Sans SC" font-size="14.00">LLM 服务: 智谱 AI (zhipuai 2.1.5), GLM 大语言模型</text>
</g>
<!-- TechOCR&#45;&gt;TechLLM -->
<!-- TechDB -->
<g id="node17" class="node">
<title>TechDB</title>
<polygon fill="#ffffcc" stroke="#333333" points="1979.5,-388.28 1654.5,-388.28 1654.5,-329.28 1985.5,-329.28 1985.5,-382.28 1979.5,-388.28"/>
<polyline fill="none" stroke="#333333" points="1979.5,-388.28 1979.5,-382.28 "/>
<polyline fill="none" stroke="#333333" points="1985.5,-382.28 1979.5,-382.28 "/>
<text text-anchor="middle" x="1820" y="-355.08" font-family="Noto Sans SC" font-size="14.00">数据存储: SQLite3, 共享文件系统 (NFS/EFS)</text>
</g>
<!-- TechLLM&#45;&gt;TechDB -->
<!-- TechDevOps -->
<g id="node18" class="node">
<title>TechDevOps</title>
<polygon fill="#ffffcc" stroke="#333333" points="2005,-205.34 1629,-205.34 1629,-146.34 2011,-146.34 2011,-199.34 2005,-205.34"/>
<polyline fill="none" stroke="#333333" points="2005,-205.34 2005,-199.34 "/>
<polyline fill="none" stroke="#333333" points="2011,-199.34 2005,-199.34 "/>
<text text-anchor="middle" x="1820" y="-172.14" font-family="Noto Sans SC" font-size="14.00">DevOps: Nginx, Prometheus, Grafana, ELK Stack</text>
</g>
<!-- TechDB&#45;&gt;TechDevOps -->
<!-- legend_client -->
<g id="node19" class="node">
<title>legend_client</title>
<ellipse fill="#e6f2ff" stroke="#333333" cx="2162" cy="-956.44" rx="61.54" ry="41.94"/>
<text text-anchor="middle" x="2162" y="-952.74" font-family="Noto Sans SC" font-size="14.00">客户端</text>
</g>
<!-- legend_lb -->
<g id="node20" class="node">
<title>legend_lb</title>
<path fill="#b3e0ff" stroke="#333333" d="M2237.25,-769.8C2237.25,-769.8 2211.35,-799.94 2211.35,-799.94 2207.44,-804.49 2197.53,-809.04 2191.53,-809.04 2191.53,-809.04 2132.47,-809.04 2132.47,-809.04 2126.47,-809.04 2116.56,-804.49 2112.65,-799.94 2112.65,-799.94 2086.75,-769.8 2086.75,-769.8 2082.84,-765.25 2082.84,-756.15 2086.75,-751.6 2086.75,-751.6 2112.65,-721.45 2112.65,-721.45 2116.56,-716.9 2126.47,-712.35 2132.47,-712.35 2132.47,-712.35 2191.53,-712.35 2191.53,-712.35 2197.53,-712.35 2207.44,-716.9 2211.35,-721.45 2211.35,-721.45 2237.25,-751.6 2237.25,-751.6 2241.16,-756.15 2241.16,-765.25 2237.25,-769.8"/>
<text text-anchor="middle" x="2162" y="-757" font-family="Noto Sans SC" font-size="14.00">负载均衡</text>
</g>
<!-- legend_client&#45;&gt;legend_lb -->
<!-- legend_server -->
<g id="node21" class="node">
<title>legend_server</title>
<path fill="#e6ccff" stroke="#333333" d="M2193.5,-602.28C2193.5,-602.28 2130.5,-602.28 2130.5,-602.28 2124.5,-602.28 2118.5,-596.28 2118.5,-590.28 2118.5,-590.28 2118.5,-555.28 2118.5,-555.28 2118.5,-549.28 2124.5,-543.28 2130.5,-543.28 2130.5,-543.28 2193.5,-543.28 2193.5,-543.28 2199.5,-543.28 2205.5,-549.28 2205.5,-555.28 2205.5,-555.28 2205.5,-590.28 2205.5,-590.28 2205.5,-596.28 2199.5,-602.28 2193.5,-602.28"/>
<text text-anchor="middle" x="2162" y="-569.08" font-family="Noto Sans SC" font-size="14.00">服务器</text>
</g>
<!-- legend_lb&#45;&gt;legend_server -->
<!-- legend_service -->
<g id="node22" class="node">
<title>legend_service</title>
<polygon fill="#ffcc99" stroke="#333333" points="2213,-388.28 2111,-388.28 2111,-384.28 2107,-384.28 2107,-380.28 2111,-380.28 2111,-337.28 2107,-337.28 2107,-333.28 2111,-333.28 2111,-329.28 2213,-329.28 2213,-388.28"/>
<polyline fill="none" stroke="#333333" points="2111,-384.28 2115,-384.28 2115,-380.28 2111,-380.28 "/>
<polyline fill="none" stroke="#333333" points="2111,-337.28 2115,-337.28 2115,-333.28 2111,-333.28 "/>
<text text-anchor="middle" x="2162" y="-355.08" font-family="Noto Sans SC" font-size="14.00">外部服务</text>
</g>
<!-- legend_server&#45;&gt;legend_service -->
<!-- legend_cloud -->
<g id="node23" class="node">
<title>legend_cloud</title>
<ellipse fill="#ffd9e6" stroke="#333333" stroke-dasharray="5,2" cx="2162" cy="-175.84" rx="61.54" ry="41.94"/>
<text text-anchor="middle" x="2162" y="-172.14" font-family="Noto Sans SC" font-size="14.00">云服务</text>
</g>
<!-- legend_service&#45;&gt;legend_cloud -->
<!-- legend_storage -->
<g id="node24" class="node">
<title>legend_storage</title>
<path fill="#b3ffb3" stroke="#333333" d="M2198.5,-89.8C2198.5,-93.88 2182.14,-97.19 2162,-97.19 2141.86,-97.19 2125.5,-93.88 2125.5,-89.8 2125.5,-89.8 2125.5,-23.32 2125.5,-23.32 2125.5,-19.25 2141.86,-15.94 2162,-15.94 2182.14,-15.94 2198.5,-19.25 2198.5,-23.32 2198.5,-23.32 2198.5,-89.8 2198.5,-89.8"/>
<path fill="none" stroke="#333333" d="M2198.5,-89.8C2198.5,-85.73 2182.14,-82.41 2162,-82.41 2141.86,-82.41 2125.5,-85.73 2125.5,-89.8"/>
<text text-anchor="middle" x="2162" y="-52.86" font-family="Noto Sans SC" font-size="14.00">存储</text>
</g>
<!-- legend_cloud&#45;&gt;legend_storage -->
</g>
</svg>
