<?xml version="1.0" encoding="UTF-8" standalone="no"?>
<!DOCTYPE svg PUBLIC "-//W3C//DTD SVG 1.1//EN"
 "http://www.w3.org/Graphics/SVG/1.1/DTD/svg11.dtd">
<!-- Generated by graphviz version 2.43.0 (0)
 -->
<!-- Title: DocuSnap_Backend_Architecture Pages: 1 -->
<svg width="1044pt" height="864pt"
 viewBox="36.00 36.00 1008.00 827.63" xmlns="http://www.w3.org/2000/svg" xmlns:xlink="http://www.w3.org/1999/xlink">
<g id="graph0" class="graph" transform="scale(1 1) rotate(0) translate(40 823.63)">
<title>DocuSnap_Backend_Architecture</title>
<polygon fill="white" stroke="transparent" points="-4,4 -4,-787.63 968,-787.63 968,4 -4,4"/>
<g id="clust1" class="cluster">
<title>cluster_docusnap_backend</title>
<path fill="#f9f9f9" stroke="black" d="M20,-8C20,-8 406,-8 406,-8 412,-8 418,-14 418,-20 418,-20 418,-607.19 418,-607.19 418,-613.19 412,-619.19 406,-619.19 406,-619.19 20,-619.19 20,-619.19 14,-619.19 8,-613.19 8,-607.19 8,-607.19 8,-20 8,-20 8,-14 14,-8 20,-8"/>
<text text-anchor="middle" x="213" y="-602.39" font-family="Noto Sans SC" font-size="16.00">DocuSnap&#45;Backend 系统</text>
</g>
<g id="clust2" class="cluster">
<title>cluster_backend_server</title>
<path fill="#e6f7ff" stroke="black" d="M112,-345.19C112,-345.19 390,-345.19 390,-345.19 396,-345.19 402,-351.19 402,-357.19 402,-357.19 402,-565.19 402,-565.19 402,-571.19 396,-577.19 390,-577.19 390,-577.19 112,-577.19 112,-577.19 106,-577.19 100,-571.19 100,-565.19 100,-565.19 100,-357.19 100,-357.19 100,-351.19 106,-345.19 112,-345.19"/>
<text text-anchor="middle" x="251" y="-560.39" font-family="Noto Sans SC" font-size="16.00">后端服务器</text>
</g>
<g id="clust3" class="cluster">
<title>cluster_cache_server</title>
<path fill="#e6ffe6" stroke="black" d="M49,-24C49,-24 235,-24 235,-24 241,-24 247,-30 247,-36 247,-36 247,-262.19 247,-262.19 247,-268.19 241,-274.19 235,-274.19 235,-274.19 49,-274.19 49,-274.19 43,-274.19 37,-268.19 37,-262.19 37,-262.19 37,-36 37,-36 37,-30 43,-24 49,-24"/>
<text text-anchor="middle" x="142" y="-257.39" font-family="Noto Sans SC" font-size="16.00">缓存服务器</text>
</g>
<g id="clust4" class="cluster">
<title>cluster_external_services</title>
<path fill="#fff0e6" stroke="black" d="M430,-19.06C430,-19.06 804,-19.06 804,-19.06 810,-19.06 816,-25.06 816,-31.06 816,-31.06 816,-304.19 816,-304.19 816,-310.19 810,-316.19 804,-316.19 804,-316.19 430,-316.19 430,-316.19 424,-316.19 418,-310.19 418,-304.19 418,-304.19 418,-31.06 418,-31.06 418,-25.06 424,-19.06 430,-19.06"/>
<text text-anchor="middle" x="617" y="-299.39" font-family="Noto Sans SC" font-size="16.00">外部服务</text>
</g>
<g id="clust5" class="cluster">
<title>cluster_ocr_server</title>
<path fill="#ffe6cc" stroke="black" d="M446,-35.06C446,-35.06 609,-35.06 609,-35.06 615,-35.06 621,-41.06 621,-47.06 621,-47.06 621,-262.19 621,-262.19 621,-268.19 615,-274.19 609,-274.19 609,-274.19 446,-274.19 446,-274.19 440,-274.19 434,-268.19 434,-262.19 434,-262.19 434,-47.06 434,-47.06 434,-41.06 440,-35.06 446,-35.06"/>
<text text-anchor="middle" x="527.5" y="-257.39" font-family="Noto Sans SC" font-size="16.00">OCR 服务器</text>
</g>
<g id="clust6" class="cluster">
<title>cluster_llm_provider</title>
<path fill="#f2e6ff" stroke="black" d="M649,-35.06C649,-35.06 788,-35.06 788,-35.06 794,-35.06 800,-41.06 800,-47.06 800,-47.06 800,-262.19 800,-262.19 800,-268.19 794,-274.19 788,-274.19 788,-274.19 649,-274.19 649,-274.19 643,-274.19 637,-268.19 637,-262.19 637,-262.19 637,-47.06 637,-47.06 637,-41.06 643,-35.06 649,-35.06"/>
<text text-anchor="middle" x="718.5" y="-257.39" font-family="Noto Sans SC" font-size="16.00">LLM 提供商</text>
</g>
<g id="clust7" class="cluster">
<title>cluster_legend</title>
<path fill="white" stroke="black" d="M828,-158.12C828,-158.12 944,-158.12 944,-158.12 950,-158.12 956,-164.12 956,-170.12 956,-170.12 956,-763.63 956,-763.63 956,-769.63 950,-775.63 944,-775.63 944,-775.63 828,-775.63 828,-775.63 822,-775.63 816,-769.63 816,-763.63 816,-763.63 816,-170.12 816,-170.12 816,-164.12 822,-158.12 828,-158.12"/>
<text text-anchor="middle" x="886" y="-758.83" font-family="Noto Sans SC" font-size="16.00">图例</text>
</g>
<!-- Client -->
<g id="node1" class="node">
<title>Client</title>
<ellipse fill="#e6f2ff" stroke="#333333" cx="213" cy="-699.91" rx="82.05" ry="41.94"/>
<text text-anchor="middle" x="213" y="-696.21" font-family="Noto Sans SC" font-size="14.00">客户端应用</text>
</g>
<!-- API -->
<g id="node2" class="node">
<title>API</title>
<path fill="#b3e0ff" stroke="#333333" d="M263,-539.19C263,-539.19 163,-539.19 163,-539.19 157,-539.19 151,-533.19 151,-527.19 151,-527.19 151,-477.19 151,-477.19 151,-471.19 157,-465.19 163,-465.19 163,-465.19 263,-465.19 263,-465.19 269,-465.19 275,-471.19 275,-477.19 275,-477.19 275,-527.19 275,-527.19 275,-533.19 269,-539.19 263,-539.19"/>
<text text-anchor="middle" x="213" y="-505.99" font-family="Noto Sans SC" font-size="14.00">API 层</text>
<text text-anchor="middle" x="213" y="-490.99" font-family="Noto Sans SC" font-size="14.00">(Flask 路由)</text>
</g>
<!-- Client&#45;&gt;API -->
<g id="edge11" class="edge">
<title>Client&#45;&gt;API</title>
<path fill="none" stroke="#666666" d="M223.96,-658.38C225.22,-652.32 226.3,-646.12 227,-640.19 230.55,-610 227.12,-576.01 222.77,-549.44"/>
<polygon fill="#666666" stroke="#666666" points="226.16,-548.53 221,-539.28 219.27,-549.73 226.16,-548.53"/>
<text text-anchor="middle" x="251.5" y="-630.59" font-family="Noto Sans SC" font-size="12.00">加密请求</text>
</g>
<!-- API&#45;&gt;Client -->
<g id="edge12" class="edge">
<title>API&#45;&gt;Client</title>
<path fill="none" stroke="#666666" d="M191.23,-539.33C177.34,-567.01 163.71,-606.1 174,-640.19 175.16,-644.03 176.66,-647.86 178.4,-651.6"/>
<polygon fill="#666666" stroke="#666666" points="175.43,-653.46 183.15,-660.71 181.64,-650.23 175.43,-653.46"/>
<text text-anchor="middle" x="198.5" y="-630.59" font-family="Noto Sans SC" font-size="12.00">加密响应</text>
</g>
<!-- TaskProcessor -->
<g id="node3" class="node">
<title>TaskProcessor</title>
<path fill="#b3e0ff" stroke="#333333" d="M230,-416.19C230,-416.19 124,-416.19 124,-416.19 118,-416.19 112,-410.19 112,-404.19 112,-404.19 112,-369.19 112,-369.19 112,-363.19 118,-357.19 124,-357.19 124,-357.19 230,-357.19 230,-357.19 236,-357.19 242,-363.19 242,-369.19 242,-369.19 242,-404.19 242,-404.19 242,-410.19 236,-416.19 230,-416.19"/>
<text text-anchor="middle" x="177" y="-382.99" font-family="Noto Sans SC" font-size="14.00">任务处理模块</text>
</g>
<!-- API&#45;&gt;TaskProcessor -->
<g id="edge1" class="edge">
<title>API&#45;&gt;TaskProcessor</title>
<path fill="none" stroke="#666666" d="M187.69,-465.17C184.6,-459.38 181.88,-453.28 180,-447.19 177.97,-440.61 176.79,-433.44 176.16,-426.42"/>
<polygon fill="#666666" stroke="#666666" points="179.65,-426.12 175.59,-416.34 172.66,-426.52 179.65,-426.12"/>
<text text-anchor="middle" x="204.5" y="-437.59" font-family="Noto Sans SC" font-size="12.00">任务分发</text>
</g>
<!-- SecurityModule -->
<g id="node4" class="node">
<title>SecurityModule</title>
<path fill="#b3e0ff" stroke="#333333" d="M378,-416.19C378,-416.19 272,-416.19 272,-416.19 266,-416.19 260,-410.19 260,-404.19 260,-404.19 260,-369.19 260,-369.19 260,-363.19 266,-357.19 272,-357.19 272,-357.19 378,-357.19 378,-357.19 384,-357.19 390,-363.19 390,-369.19 390,-369.19 390,-404.19 390,-404.19 390,-410.19 384,-416.19 378,-416.19"/>
<text text-anchor="middle" x="325" y="-382.99" font-family="Noto Sans SC" font-size="14.00">安全加密模块</text>
</g>
<!-- API&#45;&gt;SecurityModule -->
<g id="edge2" class="edge">
<title>API&#45;&gt;SecurityModule</title>
<path fill="none" stroke="#666666" d="M275.11,-470.9C285.01,-464.11 294.46,-456.19 302,-447.19 307.2,-440.98 311.31,-433.46 314.52,-425.89"/>
<polygon fill="#666666" stroke="#666666" points="317.86,-426.96 318.12,-416.37 311.31,-424.48 317.86,-426.96"/>
<text text-anchor="middle" x="336" y="-437.59" font-family="Noto Sans SC" font-size="12.00">加密/解密</text>
</g>
<!-- CacheModule -->
<g id="node6" class="node">
<title>CacheModule</title>
<path fill="#b3ffb3" stroke="#333333" d="M223.5,-236.19C223.5,-236.19 60.5,-236.19 60.5,-236.19 54.5,-236.19 48.5,-230.19 48.5,-224.19 48.5,-224.19 48.5,-189.19 48.5,-189.19 48.5,-183.19 54.5,-177.19 60.5,-177.19 60.5,-177.19 223.5,-177.19 223.5,-177.19 229.5,-177.19 235.5,-183.19 235.5,-189.19 235.5,-189.19 235.5,-224.19 235.5,-224.19 235.5,-230.19 229.5,-236.19 223.5,-236.19"/>
<text text-anchor="middle" x="142" y="-202.99" font-family="Noto Sans SC" font-size="14.00">缓存和数据持久化模块</text>
</g>
<!-- API&#45;&gt;CacheModule -->
<g id="edge5" class="edge">
<title>API&#45;&gt;CacheModule</title>
<path fill="none" stroke="#666666" d="M150.65,-485.79C114.76,-473.38 72.61,-451.93 51,-416.19 16.49,-359.12 67.1,-286.62 105.55,-243.88"/>
<polygon fill="#666666" stroke="#666666" points="108.14,-246.24 112.33,-236.51 102.98,-241.5 108.14,-246.24"/>
<text text-anchor="middle" x="77" y="-383.59" font-family="Noto Sans SC" font-size="12.00">查询/存储</text>
</g>
<!-- TaskProcessor&#45;&gt;CacheModule -->
<g id="edge6" class="edge">
<title>TaskProcessor&#45;&gt;CacheModule</title>
<path fill="none" stroke="#666666" d="M171.38,-357.09C165.46,-326.99 156.11,-279.43 149.55,-246.08"/>
<polygon fill="#666666" stroke="#666666" points="152.97,-245.35 147.61,-236.22 146.1,-246.7 152.97,-245.35"/>
<text text-anchor="middle" x="190.5" y="-327.59" font-family="Noto Sans SC" font-size="12.00">存储结果</text>
</g>
<!-- OCRModule -->
<g id="node7" class="node">
<title>OCRModule</title>
<path fill="#ffcc99" stroke="#333333" d="M571.5,-236.19C571.5,-236.19 458.5,-236.19 458.5,-236.19 452.5,-236.19 446.5,-230.19 446.5,-224.19 446.5,-224.19 446.5,-189.19 446.5,-189.19 446.5,-183.19 452.5,-177.19 458.5,-177.19 458.5,-177.19 571.5,-177.19 571.5,-177.19 577.5,-177.19 583.5,-183.19 583.5,-189.19 583.5,-189.19 583.5,-224.19 583.5,-224.19 583.5,-230.19 577.5,-236.19 571.5,-236.19"/>
<text text-anchor="middle" x="515" y="-202.99" font-family="Noto Sans SC" font-size="14.00">OCR 处理模块</text>
</g>
<!-- TaskProcessor&#45;&gt;OCRModule -->
<g id="edge13" class="edge">
<title>TaskProcessor&#45;&gt;OCRModule</title>
<path fill="none" stroke="#666666" d="M229.08,-357.01C236.43,-353.02 243.89,-348.98 251,-345.19 318.76,-309 396.84,-268.48 450.41,-240.86"/>
<polygon fill="#666666" stroke="#666666" points="452.17,-243.89 459.46,-236.2 448.96,-237.67 452.17,-243.89"/>
<text text-anchor="middle" x="310.5" y="-327.59" font-family="Noto Sans SC" font-size="12.00">图像处理</text>
</g>
<!-- LLMModule -->
<g id="node9" class="node">
<title>LLMModule</title>
<path fill="#e6ccff" stroke="#333333" d="M770.5,-236.19C770.5,-236.19 661.5,-236.19 661.5,-236.19 655.5,-236.19 649.5,-230.19 649.5,-224.19 649.5,-224.19 649.5,-189.19 649.5,-189.19 649.5,-183.19 655.5,-177.19 661.5,-177.19 661.5,-177.19 770.5,-177.19 770.5,-177.19 776.5,-177.19 782.5,-183.19 782.5,-189.19 782.5,-189.19 782.5,-224.19 782.5,-224.19 782.5,-230.19 776.5,-236.19 770.5,-236.19"/>
<text text-anchor="middle" x="716" y="-202.99" font-family="Noto Sans SC" font-size="14.00">LLM 处理模块</text>
</g>
<!-- TaskProcessor&#45;&gt;LLMModule -->
<g id="edge15" class="edge">
<title>TaskProcessor&#45;&gt;LLMModule</title>
<path fill="none" stroke="#666666" d="M221.34,-356.99C230.78,-352.17 240.95,-347.86 251,-345.19 273.18,-339.29 645.11,-350.22 664,-337.19 693.52,-316.81 706.29,-276.69 711.81,-246.48"/>
<polygon fill="#666666" stroke="#666666" points="715.32,-246.69 713.47,-236.26 708.41,-245.56 715.32,-246.69"/>
<text text-anchor="middle" x="701.5" y="-327.59" font-family="Noto Sans SC" font-size="12.00">文本分析</text>
</g>
<!-- SecurityModule&#45;&gt;API -->
<g id="edge3" class="edge">
<title>SecurityModule&#45;&gt;API</title>
<path fill="none" stroke="#666666" d="M270,-416.41C262.44,-421.72 255.16,-427.67 249,-434.19 242.87,-440.67 237.47,-448.4 232.84,-456.26"/>
<polygon fill="#666666" stroke="#666666" points="229.7,-454.7 227.94,-465.14 235.83,-458.08 229.7,-454.7"/>
<text text-anchor="middle" x="273.5" y="-437.59" font-family="Noto Sans SC" font-size="12.00">加密响应</text>
</g>
<!-- SQLiteDB -->
<g id="node5" class="node">
<title>SQLiteDB</title>
<path fill="#b3ffb3" stroke="#333333" d="M210.5,-109.8C210.5,-113.88 179.8,-117.19 142,-117.19 104.2,-117.19 73.5,-113.88 73.5,-109.8 73.5,-109.8 73.5,-43.32 73.5,-43.32 73.5,-39.25 104.2,-35.94 142,-35.94 179.8,-35.94 210.5,-39.25 210.5,-43.32 210.5,-43.32 210.5,-109.8 210.5,-109.8"/>
<path fill="none" stroke="#333333" d="M210.5,-109.8C210.5,-105.73 179.8,-102.41 142,-102.41 104.2,-102.41 73.5,-105.73 73.5,-109.8"/>
<text text-anchor="middle" x="142" y="-72.86" font-family="Noto Sans SC" font-size="14.00">SQLite 数据库</text>
</g>
<!-- CacheModule&#45;&gt;SQLiteDB -->
<g id="edge4" class="edge">
<title>CacheModule&#45;&gt;SQLiteDB</title>
<path fill="none" stroke="#666666" d="M142,-176.93C142,-162.39 142,-144.32 142,-127.59"/>
<polygon fill="#666666" stroke="#666666" points="145.5,-127.39 142,-117.39 138.5,-127.39 145.5,-127.39"/>
<text text-anchor="middle" x="156" y="-138.53" font-family="Noto Sans SC" font-size="12.00">读/写</text>
</g>
<!-- OCRModule&#45;&gt;TaskProcessor -->
<g id="edge14" class="edge">
<title>OCRModule&#45;&gt;TaskProcessor</title>
<path fill="none" stroke="#666666" d="M486.57,-236.45C454.06,-267.32 397.7,-314.92 339,-337.19 302.28,-351.11 288.57,-333.74 251,-345.19 244.51,-347.17 237.94,-349.76 231.53,-352.67"/>
<polygon fill="#666666" stroke="#666666" points="229.77,-349.63 222.3,-357.14 232.82,-355.94 229.77,-349.63"/>
<text text-anchor="middle" x="389.5" y="-327.59" font-family="Noto Sans SC" font-size="12.00">文本结果</text>
</g>
<!-- CnOCR -->
<g id="node8" class="node">
<title>CnOCR</title>
<polygon fill="#ffcc99" stroke="#333333" points="586.5,-106.06 459.5,-106.06 459.5,-102.06 455.5,-102.06 455.5,-98.06 459.5,-98.06 459.5,-55.06 455.5,-55.06 455.5,-51.06 459.5,-51.06 459.5,-47.06 586.5,-47.06 586.5,-106.06"/>
<polyline fill="none" stroke="#333333" points="459.5,-102.06 463.5,-102.06 463.5,-98.06 459.5,-98.06 "/>
<polyline fill="none" stroke="#333333" points="459.5,-55.06 463.5,-55.06 463.5,-51.06 459.5,-51.06 "/>
<text text-anchor="middle" x="523" y="-72.86" font-family="Noto Sans SC" font-size="14.00">CnOCR 服务</text>
</g>
<!-- OCRModule&#45;&gt;CnOCR -->
<g id="edge7" class="edge">
<title>OCRModule&#45;&gt;CnOCR</title>
<path fill="none" stroke="#666666" d="M516.8,-176.93C517.91,-159.05 519.36,-135.82 520.58,-116.32"/>
<polygon fill="#666666" stroke="#666666" points="524.08,-116.42 521.21,-106.22 517.09,-115.98 524.08,-116.42"/>
<text text-anchor="middle" x="555.5" y="-138.53" font-family="Noto Sans SC" font-size="12.00">图像识别请求</text>
</g>
<!-- CnOCR&#45;&gt;OCRModule -->
<g id="edge8" class="edge">
<title>CnOCR&#45;&gt;OCRModule</title>
<path fill="none" stroke="#666666" d="M485.24,-106.31C477.03,-114.62 469.47,-124.39 465,-135.12 460.13,-146.83 463.91,-158.49 471.16,-168.86"/>
<polygon fill="#666666" stroke="#666666" points="468.62,-171.29 477.63,-176.87 474.07,-166.89 468.62,-171.29"/>
<text text-anchor="middle" x="489.5" y="-138.53" font-family="Noto Sans SC" font-size="12.00">文本结果</text>
</g>
<!-- LLMModule&#45;&gt;TaskProcessor -->
<g id="edge16" class="edge">
<title>LLMModule&#45;&gt;TaskProcessor</title>
<path fill="none" stroke="#666666" d="M700.71,-236.2C685.27,-261.88 658.89,-298.24 625,-316.19 604.57,-327.01 441.05,-335.47 418,-337.19 380.95,-339.95 286.76,-335.12 251,-345.19 244.37,-347.05 237.68,-349.6 231.17,-352.52"/>
<polygon fill="#666666" stroke="#666666" points="229.3,-349.53 221.8,-357.01 232.33,-355.84 229.3,-349.53"/>
<text text-anchor="middle" x="610.5" y="-327.59" font-family="Noto Sans SC" font-size="12.00">结构化数据</text>
</g>
<!-- ZhipuAI -->
<g id="node10" class="node">
<title>ZhipuAI</title>
<polygon fill="#e6ccff" stroke="#333333" points="763,-106.06 671,-106.06 671,-102.06 667,-102.06 667,-98.06 671,-98.06 671,-55.06 667,-55.06 667,-51.06 671,-51.06 671,-47.06 763,-47.06 763,-106.06"/>
<polyline fill="none" stroke="#333333" points="671,-102.06 675,-102.06 675,-98.06 671,-98.06 "/>
<polyline fill="none" stroke="#333333" points="671,-55.06 675,-55.06 675,-51.06 671,-51.06 "/>
<text text-anchor="middle" x="717" y="-72.86" font-family="Noto Sans SC" font-size="14.00">智谱 AI</text>
</g>
<!-- LLMModule&#45;&gt;ZhipuAI -->
<g id="edge9" class="edge">
<title>LLMModule&#45;&gt;ZhipuAI</title>
<path fill="none" stroke="#666666" d="M716.6,-177C716.76,-167.78 716.92,-157.52 717,-148.12 717.09,-137.94 717.12,-126.93 717.12,-116.71"/>
<polygon fill="#666666" stroke="#666666" points="720.62,-116.4 717.11,-106.4 713.62,-116.4 720.62,-116.4"/>
<text text-anchor="middle" x="741.5" y="-138.53" font-family="Noto Sans SC" font-size="12.00">提示请求</text>
</g>
<!-- ZhipuAI&#45;&gt;LLMModule -->
<g id="edge10" class="edge">
<title>ZhipuAI&#45;&gt;LLMModule</title>
<path fill="none" stroke="#666666" d="M682.99,-106.2C675.28,-114.64 668.15,-124.49 664,-135.12 659.37,-146.98 663.32,-158.62 670.73,-168.92"/>
<polygon fill="#666666" stroke="#666666" points="668.25,-171.41 677.32,-176.88 673.64,-166.94 668.25,-171.41"/>
<text text-anchor="middle" x="688.5" y="-138.53" font-family="Noto Sans SC" font-size="12.00">分析结果</text>
</g>
<!-- legend_client -->
<g id="node11" class="node">
<title>legend_client</title>
<ellipse fill="#e6f2ff" stroke="#333333" cx="886" cy="-699.91" rx="61.54" ry="41.94"/>
<text text-anchor="middle" x="886" y="-696.21" font-family="Noto Sans SC" font-size="14.00">客户端</text>
</g>
<!-- legend_module -->
<g id="node12" class="node">
<title>legend_module</title>
<path fill="#b3e0ff" stroke="#333333" d="M925,-531.69C925,-531.69 847,-531.69 847,-531.69 841,-531.69 835,-525.69 835,-519.69 835,-519.69 835,-484.69 835,-484.69 835,-478.69 841,-472.69 847,-472.69 847,-472.69 925,-472.69 925,-472.69 931,-472.69 937,-478.69 937,-484.69 937,-484.69 937,-519.69 937,-519.69 937,-525.69 931,-531.69 925,-531.69"/>
<text text-anchor="middle" x="886" y="-498.49" font-family="Noto Sans SC" font-size="14.00">处理模块</text>
</g>
<!-- legend_client&#45;&gt;legend_module -->
<!-- legend_service -->
<g id="node13" class="node">
<title>legend_service</title>
<polygon fill="#ffcc99" stroke="#333333" points="937,-416.19 835,-416.19 835,-412.19 831,-412.19 831,-408.19 835,-408.19 835,-365.19 831,-365.19 831,-361.19 835,-361.19 835,-357.19 937,-357.19 937,-416.19"/>
<polyline fill="none" stroke="#333333" points="835,-412.19 839,-412.19 839,-408.19 835,-408.19 "/>
<polyline fill="none" stroke="#333333" points="835,-365.19 839,-365.19 839,-361.19 835,-361.19 "/>
<text text-anchor="middle" x="886" y="-382.99" font-family="Noto Sans SC" font-size="14.00">外部服务</text>
</g>
<!-- legend_module&#45;&gt;legend_service -->
<!-- legend_db -->
<g id="node14" class="node">
<title>legend_db</title>
<path fill="#b3ffb3" stroke="#333333" d="M937,-239.93C937,-244 914.14,-247.31 886,-247.31 857.86,-247.31 835,-244 835,-239.93 835,-239.93 835,-173.45 835,-173.45 835,-169.37 857.86,-166.06 886,-166.06 914.14,-166.06 937,-169.37 937,-173.45 937,-173.45 937,-239.93 937,-239.93"/>
<path fill="none" stroke="#333333" d="M937,-239.93C937,-235.85 914.14,-232.54 886,-232.54 857.86,-232.54 835,-235.85 835,-239.93"/>
<text text-anchor="middle" x="886" y="-202.99" font-family="Noto Sans SC" font-size="14.00">数据存储</text>
</g>
<!-- legend_service&#45;&gt;legend_db -->
</g>
</svg>
